<svg xmlns="http://www.w3.org/2000/svg" xmlns:xlink="http://www.w3.org/1999/xlink" xmlns:lucid="lucid" width="1021" height="801"><g transform="translate(1140.5000000038601 -1339.4995595335051)" lucid:page-tab-id="0_0"><path d="M-1140 1623.07a8 8 0 0 1 8-8h84a8 8 0 0 1 8 8v4.92a17.07 17.07 0 0 1-5 12.07 17.07 17.07 0 0 1-12.07 5H-1132a8 8 0 0 1-8-8z" fill="#fff"/><path d="M-1040 1615.07v20l-10 10h-90" stroke="#3a414a" fill="none"/><path d="M-1140 1623.07a8 8 0 0 1 8-8h1004a8 8 0 0 1 8 8V2132a8 8 0 0 1-8 8h-1004a8 8 0 0 1-8-8zM-1140 2029.8h20m15 0h20m15 0h20m15 0h20m15 0h20m15 0h20m15 0h20m15 0h20m15 0h20m15 0h20m15 0h20m15 0h20m15 0h20m15 0h20m15 0h20m15 0h20m15 0h20m15 0h20m15 0h20m15 0h20m15 0h20m15 0h20m15 0h20m15 0h20m15 0h20m15 0h20m15 0h20m15 0h20m15 0h20m15 0h5" stroke="#3a414a" fill="none"/><use xlink:href="#a" transform="matrix(1,0,0,1,-1132,1615.066450837817) translate(-1.4249999999999972 18.6)"/><use xlink:href="#b" transform="matrix(1,0,0,1,-1128,1653.066450837817) translate(9.074999999999996 18.6)"/><use xlink:href="#c" transform="matrix(1,0,0,1,-1128,1653.066450837817) translate(51.975 18.6)"/><use xlink:href="#d" transform="matrix(1,0,0,1,-1128,2037.8106818486538) translate(17.525 18.6)"/><path d="M-1120 1788a8 8 0 0 1 8-8h84a8 8 0 0 1 8 8v4.93a17.07 17.07 0 0 1-5 12.07 17.07 17.07 0 0 1-12.07 5H-1112a8 8 0 0 1-8-8z" fill="#fff"/><path d="M-1020 1780v20l-10 10h-90" stroke="#3a414a" fill="none"/><path d="M-1120 1788a8 8 0 0 1 8-8h864a8 8 0 0 1 8 8v204a8 8 0 0 1-8 8h-864a8 8 0 0 1-8-8zM-1120 1930h20m15 0h20m15 0h20m15 0h20m15 0h20m15 0h20m15 0h20m15 0h20m15 0h20m15 0h20m15 0h20m15 0h20m15 0h20m15 0h20m15 0h20m15 0h20m15 0h20m15 0h20m15 0h20m15 0h20m15 0h20m15 0h20m15 0h20m15 0h20m15 0h20m15 0h5" stroke="#3a414a" fill="none"/><use xlink:href="#a" transform="matrix(1,0,0,1,-1112,1780) translate(-1.4249999999999972 18.6)"/><use xlink:href="#e" transform="matrix(1,0,0,1,-1108,1818) translate(0 17.666666666666668)"/><use xlink:href="#f" transform="matrix(1,0,0,1,-1108,1818) translate(31.037037037037045 17.666666666666668)"/><use xlink:href="#d" transform="matrix(1,0,0,1,-1108,1938) translate(17.525 18.6)"/><path d="M-740 1508a8 8 0 0 1 8-8h24a8 8 0 0 1 8 8v604a8 8 0 0 1-8 8h-24a8 8 0 0 1-8-8zM-1000 1440c-27.6 0-50-22.4-50-50s22.4-50 50-50 50 22.4 50 50-22.4 50-50 50z" stroke="#3a414a" fill="#fff"/><path d="M-1050 1440h100" stroke="#3a414a" fill="none"/><use xlink:href="#g" transform="matrix(1,0,0,1,-1090,1440) translate(71.05 14.4)"/><path d="M-660 1390c0 27.6-22.4 50-50 50s-50-22.4-50-50 22.4-50 50-50 50 22.4 50 50z" stroke="#3a414a" fill="#fff"/><path d="M-780 1340v100m0-50h20" stroke="#3a414a" fill="none"/><use xlink:href="#h" transform="matrix(1,0,0,1,-800,1440) translate(-5.824999999999989 14.4)"/><path d="M-720 1499v-59M-720 1499v.5" stroke="#3a414a" fill="none"/><path d="M-720.1 1439.5l.58.08v.44h-.96v-.63z" stroke="#3a414a" stroke-width=".05" fill="#3a414a"/><path d="M-1000 1441v5.03m0 5.02v10.05m0 5.03v10.05m0 5.03v10.06m0 5.03v10.04m0 5.02v10.06m0 5.02v10.05m0 5.02v10.05m0 5.03v10.05m0 5.02v10.06m0 5.02v10.05m0 5.03v10.05m0 5.03v10.06m0 5.02v10.06m0 5.02v10.06m0 5.02v10.05m0 5.02v10.05m0 5.03v10.05m0 5.02v10.06m0 5.02v10.05m0 5.03v10.05m0 5.03v10.06m0 5.02v10.06m0 5.02v10.06m0 5.02v10.05m0 5.02v10.05m0 5.03v10.05m0 5.02v10.06m0 5.02v10.05m0 5.03v10.05m0 5.03v10.06m0 5.03v10.04m0 5.02v10.06m0 5.02v10.05m0 5.02v10.05m0 5.03v10.05m0 5.02v10.06m0 5.02v10.05m0 5.03v10.05m0 5.03v10.06m0 5.03v10.04m0 5.02v10.06m0 5.02v10.05m0 5.02v10.05m0 5.03v10.05m0 5.02v5.03" stroke="#3a414a" fill="none"/><path d="M-1000 1440.5h.48v.5h-.96v-.5z" stroke="#3a414a" stroke-width=".05" fill="#3a414a"/><path d="M-1000 2119.5v.5" stroke="#3a414a" fill="none"/><path d="M-934.2 1520.47h-65.3v-.94h65.3zm177.32 0h-49.4v-.94h49.4zM-999.5 1520.47h-.5v-.94h.5z" stroke="#3a414a" stroke-width=".05" fill="#3a414a"/><path d="M-742.12 1520l-14.26 4.63v-9.27z" fill="#3a414a"/><path d="M-740.58 1520l-16.28 5.3v-10.6zm-15.33 3.98l12.24-3.98-12.25-3.98z" stroke="#3a414a" stroke-width=".05" fill="#3a414a"/><use xlink:href="#i" transform="matrix(1,0,0,1,-934.212961969608,1503.9999626935212) translate(0.005000000000002558 10.666666666666668)"/><use xlink:href="#j" transform="matrix(1,0,0,1,-934.212961969608,1503.9999626935212) translate(36.26425925925926 10.666666666666668)"/><use xlink:href="#k" transform="matrix(1,0,0,1,-934.212961969608,1503.9999626935212) translate(63.5975925925926 10.666666666666668)"/><use xlink:href="#l" transform="matrix(1,0,0,1,-934.212961969608,1503.9999626935212) translate(63.96796296296297 26.666666666666668)"/><path d="M-440 1440c-27.6 0-50-22.4-50-50s22.4-50 50-50 50 22.4 50 50-22.4 50-50 50z" stroke="#3a414a" fill="#fff"/><path d="M-490 1440h100" stroke="#3a414a" fill="none"/><use xlink:href="#m" transform="matrix(1,0,0,1,-530,1440) translate(3.1000000000000085 14.4)"/><path d="M-460 1528a8 8 0 0 1 8-8h24a8 8 0 0 1 8 8v584a8 8 0 0 1-8 8h-24a8 8 0 0 1-8-8z" stroke="#3a414a" fill="#fff"/><path d="M-440 1519v-78M-440 1519v.5" stroke="#3a414a" fill="none"/><path d="M-440 1440.5h.48v.5h-.96v-.5z" stroke="#3a414a" stroke-width=".05" fill="#3a414a"/><path d="M-699 1544h222.12" stroke="#3a414a" fill="none"/><path d="M-699 1544.48h-.5v-.95h.5z" stroke="#3a414a" stroke-width=".05" fill="#3a414a"/><path d="M-462.12 1544l-14.26 4.63v-9.27z" stroke="#3a414a" fill="#3a414a"/><use xlink:href="#n" transform="matrix(1,0,0,1,-645.6500631054125,1518.3999259991908) translate(0.0049999999999954525 14.4)"/><path d="M-170 1440c-27.6 0-50-22.4-50-50s22.4-50 50-50 50 22.4 50 50-22.4 50-50 50z" stroke="#3a414a" fill="#fff"/><path d="M-220 1440h100" stroke="#3a414a" fill="none"/><use xlink:href="#o" transform="matrix(1,0,0,1,-260,1440) translate(51.525 14.4)"/><path d="M-190 1528a8 8 0 0 1 8-8h24a8 8 0 0 1 8 8v584a8 8 0 0 1-8 8h-24a8 8 0 0 1-8-8z" stroke="#3a414a" fill="#fff"/><path d="M-170 1519v-78M-170 1519v.5" stroke="#3a414a" fill="none"/><path d="M-170 1440.5h.47v.5h-.94v-.5z" stroke="#3a414a" stroke-width=".05" fill="#3a414a"/><path d="M-419 1590h212.12" stroke="#3a414a" fill="none"/><path d="M-419 1590.47h-.5v-.95h.5z" stroke="#3a414a" stroke-width=".05" fill="#3a414a"/><path d="M-192.12 1590l-14.26 4.63v-9.27z" stroke="#3a414a" fill="#3a414a"/><use xlink:href="#p" transform="matrix(1,0,0,1,-381.62504535685497,1564.398981401135) translate(0.0049999999999954525 14.4)"/><use xlink:href="#q" transform="matrix(1,0,0,1,-381.62504535685497,1564.398981401135) translate(71.955 14.4)"/><use xlink:href="#r" transform="matrix(1,0,0,1,-381.62504535685497,1564.398981401135) translate(124.305 14.4)"/><path d="M-191 1670.04h-212.12" stroke="#3a414a" fill="none"/><path d="M-190.5 1670.52h-.5v-.95h.5z" stroke="#3a414a" stroke-width=".05" fill="#3a414a"/><path d="M-417.88 1670.04l14.26-4.63v9.28z" stroke="#3a414a" fill="#3a414a"/><use xlink:href="#s" transform="matrix(1,0,0,1,-379.51854010865463,1674.0418024297776) translate(0.0049999999999954525 10.666666666666668)"/><use xlink:href="#t" transform="matrix(1,0,0,1,-379.51854010865463,1674.0418024297776) translate(43.63462962962962 10.666666666666668)"/><use xlink:href="#u" transform="matrix(1,0,0,1,-379.51854010865463,1674.0418024297776) translate(84.33833333333332 10.666666666666668)"/><use xlink:href="#v" transform="matrix(1,0,0,1,-379.51854010865463,1674.0418024297776) translate(123.11611111111111 10.666666666666668)"/><path d="M-191 2053.64h-212.12" stroke="#3a414a" fill="none"/><path d="M-190.5 2054.12h-.5v-.95h.5z" stroke="#3a414a" stroke-width=".05" fill="#3a414a"/><path d="M-417.88 2053.64l14.26-4.63v9.28z" stroke="#3a414a" fill="#3a414a"/><use xlink:href="#w" transform="matrix(1,0,0,1,-356.84995999234206,2057.6447223349023) translate(0.005000000000002558 14.4)"/><use xlink:href="#x" transform="matrix(1,0,0,1,-356.84995999234206,2057.6447223349023) translate(63.85500000000001 14.4)"/><path d="M-419 1715.2h27.5a12 12 0 0 1 12 12v19.2a12 12 0 0 1-12 12h-11.62" stroke="#3a414a" fill="none"/><path d="M-419 1715.67h-.5v-.95h.5z" stroke="#3a414a" stroke-width=".05" fill="#3a414a"/><path d="M-417.88 1758.4l14.26-4.63v9.27z" stroke="#3a414a" fill="#3a414a"/><use xlink:href="#y" transform="matrix(1,0,0,1,-371.50006054793994,1728.8000330582197) translate(0.005000000000002558 10.666666666666668)"/><use xlink:href="#f" transform="matrix(1,0,0,1,-371.50006054793994,1728.8000330582197) translate(49.56055555555557 10.666666666666668)"/><path d="M-461 1866h-222.12" stroke="#3a414a" fill="none"/><path d="M-460.5 1866.47h-.5v-.94h.5z" stroke="#3a414a" stroke-width=".05" fill="#3a414a"/><path d="M-697.88 1866l14.26-4.63v9.27z" stroke="#3a414a" fill="#3a414a"/><use xlink:href="#s" transform="matrix(1,0,0,1,-665.277769606256,1870.0000000641535) translate(0.0049999999999954525 10.666666666666668)"/><use xlink:href="#u" transform="matrix(1,0,0,1,-665.277769606256,1870.0000000641535) translate(43.63462962962962 10.666666666666668)"/><use xlink:href="#z" transform="matrix(1,0,0,1,-665.277769606256,1870.0000000641535) translate(82.4124074074074 10.666666666666668)"/><use xlink:href="#A" transform="matrix(1,0,0,1,-665.277769606256,1870.0000000641535) translate(112.04203703703703 10.666666666666668)"/><use xlink:href="#B" transform="matrix(1,0,0,1,-665.277769606256,1870.0000000641535) translate(137.96796296296296 10.666666666666668)"/><path d="M-461 1948.5h-222.12" stroke="#3a414a" fill="none"/><path d="M-460.5 1948.97h-.5v-.95h.5z" stroke="#3a414a" stroke-width=".05" fill="#3a414a"/><path d="M-697.88 1948.5l14.26-4.64v9.27z" stroke="#3a414a" fill="#3a414a"/><use xlink:href="#C" transform="matrix(1,0,0,1,-661.3999775332904,1952.498606713586) translate(0.0049999999999954525 14.4)"/><use xlink:href="#D" transform="matrix(1,0,0,1,-661.3999775332904,1952.498606713586) translate(58.905 14.4)"/><path d="M-419 1800.98h27.5a12 12 0 0 1 12 12v15.58a12 12 0 0 1-12 12h-11.62" stroke="#3a414a" fill="none"/><path d="M-419 1801.45h-.5v-.95h.5z" stroke="#3a414a" stroke-width=".05" fill="#3a414a"/><path d="M-417.88 1840.56l14.26-4.64v9.27z" stroke="#3a414a" fill="#3a414a"/><use xlink:href="#E" transform="matrix(1,0,0,1,-371.5000464801403,1809.9664948881536) translate(0.005000000000002558 14.4)"/><use xlink:href="#F" transform="matrix(1,0,0,1,-371.5000464801403,1809.9664948881536) translate(79.95500000000001 14.4)"/><path d="M-741 1974.67h-242.62" stroke="#3a414a" fill="none"/><path d="M-740.5 1975.14h-.5v-.95h.5z" stroke="#3a414a" stroke-width=".05" fill="#3a414a"/><path d="M-998.38 1974.67l14.26-4.64v9.27z" stroke="#3a414a" fill="#3a414a"/><g><use xlink:href="#G" transform="matrix(1,0,0,1,-961.5499613686534,1978.6666666390602) translate(0.0049999999999954525 14.4)"/><use xlink:href="#H" transform="matrix(1,0,0,1,-961.5499613686534,1978.6666666390602) translate(63.855000000000004 14.4)"/><use xlink:href="#I" transform="matrix(1,0,0,1,-961.5499613686534,1978.6666666390602) translate(144.755 14.4)"/></g><path d="M-461 2078.03h-222.12" stroke="#3a414a" fill="none"/><path d="M-460.5 2078.5h-.5v-.95h.5z" stroke="#3a414a" stroke-width=".05" fill="#3a414a"/><path d="M-697.88 2078.03l14.26-4.64v9.26z" stroke="#3a414a" fill="#3a414a"/><g><use xlink:href="#C" transform="matrix(1,0,0,1,-661.3999557205167,2082.0297610144116) translate(0.0049999999999954525 14.4)"/><use xlink:href="#D" transform="matrix(1,0,0,1,-661.3999557205167,2082.0297610144116) translate(58.905 14.4)"/></g><path d="M-741 2102.32h-242.62" stroke="#3a414a" fill="none"/><path d="M-740.5 2102.8h-.5v-.96h.5z" stroke="#3a414a" stroke-width=".05" fill="#3a414a"/><path d="M-998.38 2102.32l14.26-4.64v9.27z" stroke="#3a414a" fill="#3a414a"/><g><use xlink:href="#G" transform="matrix(1,0,0,1,-961.549950801585,2106.316851418175) translate(0.0049999999999954525 14.4)"/><use xlink:href="#H" transform="matrix(1,0,0,1,-961.549950801585,2106.316851418175) translate(63.855000000000004 14.4)"/><use xlink:href="#I" transform="matrix(1,0,0,1,-961.549950801585,2106.316851418175) translate(144.755 14.4)"/></g><path d="M-741 1895.43h-242.62" stroke="#3a414a" fill="none"/><path d="M-740.5 1895.9h-.5v-.95h.5z" stroke="#3a414a" stroke-width=".05" fill="#3a414a"/><path d="M-998.38 1895.43l14.26-4.64v9.26z" stroke="#3a414a" fill="#3a414a"/><g><use xlink:href="#J" transform="matrix(1,0,0,1,-968.287004965281,1899.4268155195377) translate(0.0049999999999954525 10.666666666666668)"/><use xlink:href="#K" transform="matrix(1,0,0,1,-968.287004965281,1899.4268155195377) translate(47.30129629629629 10.666666666666668)"/><use xlink:href="#L" transform="matrix(1,0,0,1,-968.287004965281,1899.4268155195377) translate(113.19018518518521 10.666666666666668)"/></g><defs><path fill="#3a414a" d="M205 0l-28-72H64L36 0H1l101-248h38L239 0h-34zm-38-99l-47-123c-12 45-31 82-46 123h93" id="M"/><path fill="#3a414a" d="M24 0v-261h32V0H24" id="N"/><path fill="#3a414a" d="M59-47c-2 24 18 29 38 22v24C64 9 27 4 27-40v-127H5v-23h24l9-43h21v43h35v23H59v120" id="O"/><path fill="#3a414a" d="M100-194c63 0 86 42 84 106H49c0 40 14 67 53 68 26 1 43-12 49-29l28 8c-11 28-37 45-77 45C44 4 14-33 15-96c1-61 26-98 85-98zm52 81c6-60-76-77-97-28-3 7-6 17-6 28h103" id="P"/><path fill="#3a414a" d="M114-163C36-179 61-72 57 0H25l-1-190h30c1 12-1 29 2 39 6-27 23-49 58-41v29" id="Q"/><path fill="#3a414a" d="M117-194c89-4 53 116 60 194h-32v-121c0-31-8-49-39-48C34-167 62-67 57 0H25l-1-190h30c1 10-1 24 2 32 11-22 29-35 61-36" id="R"/><path fill="#3a414a" d="M141-36C126-15 110 5 73 4 37 3 15-17 15-53c-1-64 63-63 125-63 3-35-9-54-41-54-24 1-41 7-42 31l-33-3c5-37 33-52 76-52 45 0 72 20 72 64v82c-1 20 7 32 28 27v20c-31 9-61-2-59-35zM48-53c0 20 12 33 32 33 41-3 63-29 60-74-43 2-92-5-92 41" id="S"/><path fill="#3a414a" d="M24-231v-30h32v30H24zM24 0v-190h32V0H24" id="T"/><path fill="#3a414a" d="M108 0H70L1-190h34L89-25l56-165h34" id="U"/><g id="a"><use transform="matrix(0.05,0,0,0.05,0,0)" xlink:href="#M"/><use transform="matrix(0.05,0,0,0.05,12,0)" xlink:href="#N"/><use transform="matrix(0.05,0,0,0.05,15.949999999999998,0)" xlink:href="#O"/><use transform="matrix(0.05,0,0,0.05,20.95,0)" xlink:href="#P"/><use transform="matrix(0.05,0,0,0.05,30.950000000000003,0)" xlink:href="#Q"/><use transform="matrix(0.05,0,0,0.05,36.9,0)" xlink:href="#R"/><use transform="matrix(0.05,0,0,0.05,46.9,0)" xlink:href="#S"/><use transform="matrix(0.05,0,0,0.05,56.900000000000006,0)" xlink:href="#O"/><use transform="matrix(0.05,0,0,0.05,61.900000000000006,0)" xlink:href="#T"/><use transform="matrix(0.05,0,0,0.05,65.85,0)" xlink:href="#U"/><use transform="matrix(0.05,0,0,0.05,74.85,0)" xlink:href="#P"/></g><path fill="#3a414a" d="M232-93c-1 65-40 97-104 97C67 4 28-28 28-90v-158h33c8 89-33 224 67 224 102 0 64-133 71-224h33v155" id="V"/><path fill="#3a414a" d="M135-143c-3-34-86-38-87 0 15 53 115 12 119 90S17 21 10-45l28-5c4 36 97 45 98 0-10-56-113-15-118-90-4-57 82-63 122-42 12 7 21 19 24 35" id="W"/><g id="b"><use transform="matrix(0.05,0,0,0.05,0,0)" xlink:href="#V"/><use transform="matrix(0.05,0,0,0.05,12.950000000000001,0)" xlink:href="#W"/><use transform="matrix(0.05,0,0,0.05,21.950000000000003,0)" xlink:href="#P"/><use transform="matrix(0.05,0,0,0.05,31.950000000000003,0)" xlink:href="#Q"/></g><path fill="#3a414a" d="M30 0v-248h187v28H63v79h144v27H63v87h162V0H30" id="X"/><path fill="#3a414a" d="M141 0L90-78 38 0H4l68-98-65-92h35l48 74 47-74h35l-64 92 68 98h-35" id="Y"/><g id="c"><use transform="matrix(0.05,0,0,0.05,0,0)" xlink:href="#X"/><use transform="matrix(0.05,0,0,0.05,12,0)" xlink:href="#Y"/><use transform="matrix(0.05,0,0,0.05,21,0)" xlink:href="#T"/><use transform="matrix(0.05,0,0,0.05,24.95,0)" xlink:href="#W"/><use transform="matrix(0.05,0,0,0.05,33.95,0)" xlink:href="#O"/></g><path fill="#3a414a" d="M26 75v-336h71v23H56V52h41v23H26" id="Z"/><path fill="#3a414a" d="M3 75V52h41v-290H3v-23h71V75H3" id="aa"/><g id="d"><use transform="matrix(0.05,0,0,0.05,0,0)" xlink:href="#Z"/><use transform="matrix(0.05,0,0,0.05,5,0)" xlink:href="#X"/><use transform="matrix(0.05,0,0,0.05,17,0)" xlink:href="#N"/><use transform="matrix(0.05,0,0,0.05,20.95,0)" xlink:href="#W"/><use transform="matrix(0.05,0,0,0.05,29.950000000000003,0)" xlink:href="#P"/><use transform="matrix(0.05,0,0,0.05,39.95,0)" xlink:href="#aa"/></g><path fill="#3a414a" d="M85-194c31 0 48 13 60 33l-1-100h32l1 261h-30c-2-10 0-23-3-31C134-8 116 4 85 4 32 4 16-35 15-94c0-66 23-100 70-100zm9 24c-40 0-46 34-46 75 0 40 6 74 45 74 42 0 51-32 51-76 0-42-9-74-50-73" id="ab"/><g id="e"><use transform="matrix(0.03703703703703704,0,0,0.03703703703703704,0,0)" xlink:href="#U"/><use transform="matrix(0.03703703703703704,0,0,0.03703703703703704,6.666666666666668,0)" xlink:href="#S"/><use transform="matrix(0.03703703703703704,0,0,0.03703703703703704,14.074074074074076,0)" xlink:href="#N"/><use transform="matrix(0.03703703703703704,0,0,0.03703703703703704,17.000000000000004,0)" xlink:href="#T"/><use transform="matrix(0.03703703703703704,0,0,0.03703703703703704,19.925925925925934,0)" xlink:href="#ab"/></g><path fill="#3a414a" d="M115-194c55 1 70 41 70 98S169 2 115 4C84 4 66-9 55-30l1 105H24l-1-265h31l2 30c10-21 28-34 59-34zm-8 174c40 0 45-34 45-75s-6-73-45-74c-42 0-51 32-51 76 0 43 10 73 51 73" id="ac"/><path fill="#3a414a" d="M206 0h-36l-40-164L89 0H53L-1-190h32L70-26l43-164h34l41 164 42-164h31" id="ad"/><path fill="#3a414a" d="M100-194c62-1 85 37 85 99 1 63-27 99-86 99S16-35 15-95c0-66 28-99 85-99zM99-20c44 1 53-31 53-75 0-43-8-75-51-75s-53 32-53 75 10 74 51 75" id="ae"/><g id="f"><use transform="matrix(0.03703703703703704,0,0,0.03703703703703704,0,0)" xlink:href="#ac"/><use transform="matrix(0.03703703703703704,0,0,0.03703703703703704,7.407407407407408,0)" xlink:href="#S"/><use transform="matrix(0.03703703703703704,0,0,0.03703703703703704,14.814814814814817,0)" xlink:href="#W"/><use transform="matrix(0.03703703703703704,0,0,0.03703703703703704,21.481481481481485,0)" xlink:href="#W"/><use transform="matrix(0.03703703703703704,0,0,0.03703703703703704,28.148148148148152,0)" xlink:href="#ad"/><use transform="matrix(0.03703703703703704,0,0,0.03703703703703704,37.74074074074075,0)" xlink:href="#ae"/><use transform="matrix(0.03703703703703704,0,0,0.03703703703703704,45.14814814814815,0)" xlink:href="#Q"/><use transform="matrix(0.03703703703703704,0,0,0.03703703703703704,49.55555555555556,0)" xlink:href="#ab"/></g><g id="g"><use transform="matrix(0.05,0,0,0.05,0,0)" xlink:href="#V"/><use transform="matrix(0.05,0,0,0.05,12.950000000000001,0)" xlink:href="#W"/><use transform="matrix(0.05,0,0,0.05,21.950000000000003,0)" xlink:href="#P"/><use transform="matrix(0.05,0,0,0.05,31.950000000000003,0)" xlink:href="#Q"/></g><path fill="#3a414a" d="M84 4C-5 8 30-112 23-190h32v120c0 31 7 50 39 49 72-2 45-101 50-169h31l1 190h-30c-1-10 1-25-2-33-11 22-28 36-60 37" id="af"/><path fill="#3a414a" d="M106-169C34-169 62-67 57 0H25v-261h32l-1 103c12-21 28-36 61-36 89 0 53 116 60 194h-32v-121c2-32-8-49-39-48" id="ag"/><path fill="#3a414a" d="M96-169c-40 0-48 33-48 73s9 75 48 75c24 0 41-14 43-38l32 2c-6 37-31 61-74 61-59 0-76-41-82-99-10-93 101-131 147-64 4 7 5 14 7 22l-32 3c-4-21-16-35-41-35" id="ah"/><path fill="#3a414a" d="M212-179c-10-28-35-45-73-45-59 0-87 40-87 99 0 60 29 101 89 101 43 0 62-24 78-52l27 14C228-24 195 4 139 4 59 4 22-46 18-125c-6-104 99-153 187-111 19 9 31 26 39 46" id="ai"/><g id="h"><use transform="matrix(0.05,0,0,0.05,0,0)" xlink:href="#M"/><use transform="matrix(0.05,0,0,0.05,12,0)" xlink:href="#af"/><use transform="matrix(0.05,0,0,0.05,22,0)" xlink:href="#O"/><use transform="matrix(0.05,0,0,0.05,27,0)" xlink:href="#ag"/><use transform="matrix(0.05,0,0,0.05,37,0)" xlink:href="#P"/><use transform="matrix(0.05,0,0,0.05,47,0)" xlink:href="#R"/><use transform="matrix(0.05,0,0,0.05,57,0)" xlink:href="#O"/><use transform="matrix(0.05,0,0,0.05,62,0)" xlink:href="#T"/><use transform="matrix(0.05,0,0,0.05,65.95,0)" xlink:href="#ah"/><use transform="matrix(0.05,0,0,0.05,74.95,0)" xlink:href="#S"/><use transform="matrix(0.05,0,0,0.05,84.95,0)" xlink:href="#O"/><use transform="matrix(0.05,0,0,0.05,89.95,0)" xlink:href="#T"/><use transform="matrix(0.05,0,0,0.05,93.9,0)" xlink:href="#ae"/><use transform="matrix(0.05,0,0,0.05,103.9,0)" xlink:href="#R"/><use transform="matrix(0.05,0,0,0.05,113.9,0)" xlink:href="#ai"/><use transform="matrix(0.05,0,0,0.05,126.85000000000001,0)" xlink:href="#ae"/><use transform="matrix(0.05,0,0,0.05,136.85000000000002,0)" xlink:href="#R"/><use transform="matrix(0.05,0,0,0.05,146.85000000000002,0)" xlink:href="#O"/><use transform="matrix(0.05,0,0,0.05,151.85000000000002,0)" xlink:href="#Q"/><use transform="matrix(0.05,0,0,0.05,157.8,0)" xlink:href="#ae"/><use transform="matrix(0.05,0,0,0.05,167.8,0)" xlink:href="#N"/><use transform="matrix(0.05,0,0,0.05,171.75,0)" xlink:href="#N"/><use transform="matrix(0.05,0,0,0.05,175.7,0)" xlink:href="#P"/><use transform="matrix(0.05,0,0,0.05,185.7,0)" xlink:href="#Q"/></g><path fill="#3a414a" d="M30 0v-248h33v221h125V0H30" id="aj"/><path fill="#3a414a" d="M177-190C167-65 218 103 67 71c-23-6-38-20-44-43l32-5c15 47 100 32 89-28v-30C133-14 115 1 83 1 29 1 15-40 15-95c0-56 16-97 71-98 29-1 48 16 59 35 1-10 0-23 2-32h30zM94-22c36 0 50-32 50-73 0-42-14-75-50-75-39 0-46 34-46 75s6 73 46 73" id="ak"/><g id="i"><use transform="matrix(0.03703703703703704,0,0,0.03703703703703704,0,0)" xlink:href="#aj"/><use transform="matrix(0.03703703703703704,0,0,0.03703703703703704,7.407407407407408,0)" xlink:href="#ae"/><use transform="matrix(0.03703703703703704,0,0,0.03703703703703704,14.814814814814817,0)" xlink:href="#ak"/><use transform="matrix(0.03703703703703704,0,0,0.03703703703703704,22.222222222222225,0)" xlink:href="#T"/><use transform="matrix(0.03703703703703704,0,0,0.03703703703703704,25.148148148148152,0)" xlink:href="#R"/></g><g id="j"><use transform="matrix(0.03703703703703704,0,0,0.03703703703703704,0,0)" xlink:href="#ad"/><use transform="matrix(0.03703703703703704,0,0,0.03703703703703704,9.592592592592593,0)" xlink:href="#T"/><use transform="matrix(0.03703703703703704,0,0,0.03703703703703704,12.518518518518517,0)" xlink:href="#O"/><use transform="matrix(0.03703703703703704,0,0,0.03703703703703704,16.22222222222222,0)" xlink:href="#ag"/></g><g id="k"><use transform="matrix(0.03703703703703704,0,0,0.03703703703703704,0,0)" xlink:href="#ah"/><use transform="matrix(0.03703703703703704,0,0,0.03703703703703704,6.666666666666668,0)" xlink:href="#Q"/><use transform="matrix(0.03703703703703704,0,0,0.03703703703703704,11.074074074074076,0)" xlink:href="#P"/><use transform="matrix(0.03703703703703704,0,0,0.03703703703703704,18.481481481481485,0)" xlink:href="#ab"/><use transform="matrix(0.03703703703703704,0,0,0.03703703703703704,25.888888888888893,0)" xlink:href="#P"/><use transform="matrix(0.03703703703703704,0,0,0.03703703703703704,33.296296296296305,0)" xlink:href="#R"/><use transform="matrix(0.03703703703703704,0,0,0.03703703703703704,40.70370370370371,0)" xlink:href="#O"/><use transform="matrix(0.03703703703703704,0,0,0.03703703703703704,44.40740740740741,0)" xlink:href="#T"/><use transform="matrix(0.03703703703703704,0,0,0.03703703703703704,47.33333333333334,0)" xlink:href="#S"/><use transform="matrix(0.03703703703703704,0,0,0.03703703703703704,54.74074074074075,0)" xlink:href="#N"/><use transform="matrix(0.03703703703703704,0,0,0.03703703703703704,57.66666666666667,0)" xlink:href="#W"/></g><path fill="#3a414a" d="M185-189c-5-48-123-54-124 2 14 75 158 14 163 119 3 78-121 87-175 55-17-10-28-26-33-46l33-7c5 56 141 63 141-1 0-78-155-14-162-118-5-82 145-84 179-34 5 7 8 16 11 25" id="al"/><g id="m"><use transform="matrix(0.05,0,0,0.05,0,0)" xlink:href="#M"/><use transform="matrix(0.05,0,0,0.05,12,0)" xlink:href="#af"/><use transform="matrix(0.05,0,0,0.05,22,0)" xlink:href="#O"/><use transform="matrix(0.05,0,0,0.05,27,0)" xlink:href="#ag"/><use transform="matrix(0.05,0,0,0.05,37,0)" xlink:href="#P"/><use transform="matrix(0.05,0,0,0.05,47,0)" xlink:href="#R"/><use transform="matrix(0.05,0,0,0.05,57,0)" xlink:href="#O"/><use transform="matrix(0.05,0,0,0.05,62,0)" xlink:href="#T"/><use transform="matrix(0.05,0,0,0.05,65.95,0)" xlink:href="#ah"/><use transform="matrix(0.05,0,0,0.05,74.95,0)" xlink:href="#S"/><use transform="matrix(0.05,0,0,0.05,84.95,0)" xlink:href="#O"/><use transform="matrix(0.05,0,0,0.05,89.95,0)" xlink:href="#T"/><use transform="matrix(0.05,0,0,0.05,93.9,0)" xlink:href="#ae"/><use transform="matrix(0.05,0,0,0.05,103.9,0)" xlink:href="#R"/><use transform="matrix(0.05,0,0,0.05,113.9,0)" xlink:href="#al"/><use transform="matrix(0.05,0,0,0.05,125.9,0)" xlink:href="#P"/><use transform="matrix(0.05,0,0,0.05,135.9,0)" xlink:href="#Q"/><use transform="matrix(0.05,0,0,0.05,141.85,0)" xlink:href="#U"/><use transform="matrix(0.05,0,0,0.05,150.85,0)" xlink:href="#T"/><use transform="matrix(0.05,0,0,0.05,154.79999999999998,0)" xlink:href="#ah"/><use transform="matrix(0.05,0,0,0.05,163.79999999999998,0)" xlink:href="#P"/></g><path fill="#3a414a" d="M87 75C49 33 22-17 22-94c0-76 28-126 65-167h31c-38 41-64 92-64 168S80 34 118 75H87" id="am"/><path fill="#3a414a" d="M30-248c118-7 216 8 213 122C240-48 200 0 122 0H30v-248zM63-27c89 8 146-16 146-99s-60-101-146-95v194" id="an"/><path fill="#3a414a" d="M127-220V0H93v-220H8v-28h204v28h-85" id="ao"/><path fill="#3a414a" d="M140-251c81 0 123 46 123 126C263-46 219 4 140 4 59 4 17-45 17-125s42-126 123-126zm0 227c63 0 89-41 89-101s-29-99-89-99c-61 0-89 39-89 99S79-25 140-24" id="ap"/><path fill="#3a414a" d="M33-261c38 41 65 92 65 168S71 34 33 75H2C39 34 66-17 66-93S39-220 2-261h31" id="aq"/><g id="n"><use transform="matrix(0.05,0,0,0.05,0,0)" xlink:href="#N"/><use transform="matrix(0.05,0,0,0.05,3.95,0)" xlink:href="#ae"/><use transform="matrix(0.05,0,0,0.05,13.949999999999998,0)" xlink:href="#ak"/><use transform="matrix(0.05,0,0,0.05,23.95,0)" xlink:href="#T"/><use transform="matrix(0.05,0,0,0.05,27.899999999999995,0)" xlink:href="#R"/><use transform="matrix(0.05,0,0,0.05,37.9,0)" xlink:href="#am"/><use transform="matrix(0.05,0,0,0.05,43.85,0)" xlink:href="#aj"/><use transform="matrix(0.05,0,0,0.05,53.85,0)" xlink:href="#ae"/><use transform="matrix(0.05,0,0,0.05,63.85,0)" xlink:href="#ak"/><use transform="matrix(0.05,0,0,0.05,73.85,0)" xlink:href="#T"/><use transform="matrix(0.05,0,0,0.05,77.8,0)" xlink:href="#R"/><use transform="matrix(0.05,0,0,0.05,87.8,0)" xlink:href="#an"/><use transform="matrix(0.05,0,0,0.05,100.75,0)" xlink:href="#ao"/><use transform="matrix(0.05,0,0,0.05,111.35000000000001,0)" xlink:href="#ap"/><use transform="matrix(0.05,0,0,0.05,125.35000000000001,0)" xlink:href="#aq"/></g><path fill="#3a414a" d="M115-194c53 0 69 39 70 98 0 66-23 100-70 100C84 3 66-7 56-30L54 0H23l1-261h32v101c10-23 28-34 59-34zm-8 174c40 0 45-34 45-75 0-40-5-75-45-74-42 0-51 32-51 76 0 43 10 73 51 73" id="ar"/><g id="o"><use transform="matrix(0.05,0,0,0.05,0,0)" xlink:href="#an"/><use transform="matrix(0.05,0,0,0.05,12.950000000000001,0)" xlink:href="#S"/><use transform="matrix(0.05,0,0,0.05,22.950000000000003,0)" xlink:href="#O"/><use transform="matrix(0.05,0,0,0.05,27.950000000000003,0)" xlink:href="#S"/><use transform="matrix(0.05,0,0,0.05,37.95,0)" xlink:href="#ar"/><use transform="matrix(0.05,0,0,0.05,47.95,0)" xlink:href="#S"/><use transform="matrix(0.05,0,0,0.05,57.95,0)" xlink:href="#W"/><use transform="matrix(0.05,0,0,0.05,66.95,0)" xlink:href="#P"/></g><path fill="#3a414a" d="M233-177c-1 41-23 64-60 70L243 0h-38l-65-103H63V0H30v-248c88 3 205-21 203 71zM63-129c60-2 137 13 137-47 0-61-80-42-137-45v92" id="as"/><path fill="#3a414a" d="M145-31C134-9 116 4 85 4 32 4 16-35 15-94c0-59 17-99 70-100 32-1 48 14 60 33 0-11-1-24 2-32h30l-1 268h-32zM93-21c41 0 51-33 51-76s-8-73-50-73c-40 0-46 35-46 75s5 74 45 74" id="at"/><g id="p"><use transform="matrix(0.05,0,0,0.05,0,0)" xlink:href="#as"/><use transform="matrix(0.05,0,0,0.05,12.950000000000001,0)" xlink:href="#P"/><use transform="matrix(0.05,0,0,0.05,22.950000000000003,0)" xlink:href="#at"/><use transform="matrix(0.05,0,0,0.05,32.95,0)" xlink:href="#af"/><use transform="matrix(0.05,0,0,0.05,42.95,0)" xlink:href="#P"/><use transform="matrix(0.05,0,0,0.05,52.95,0)" xlink:href="#W"/><use transform="matrix(0.05,0,0,0.05,61.95,0)" xlink:href="#O"/></g><path fill="#3a414a" d="M47-170H22l-4-78h33" id="au"/><g id="q"><use transform="matrix(0.05,0,0,0.05,0,0)" xlink:href="#af"/><use transform="matrix(0.05,0,0,0.05,10,0)" xlink:href="#W"/><use transform="matrix(0.05,0,0,0.05,19,0)" xlink:href="#P"/><use transform="matrix(0.05,0,0,0.05,29,0)" xlink:href="#Q"/><use transform="matrix(0.05,0,0,0.05,34.95,0)" xlink:href="#au"/><use transform="matrix(0.05,0,0,0.05,38.35,0)" xlink:href="#W"/></g><path fill="#3a414a" d="M101-234c-31-9-42 10-38 44h38v23H63V0H32v-167H5v-23h27c-7-52 17-82 69-68v24" id="av"/><g id="r"><use transform="matrix(0.05,0,0,0.05,0,0)" xlink:href="#T"/><use transform="matrix(0.05,0,0,0.05,3.95,0)" xlink:href="#R"/><use transform="matrix(0.05,0,0,0.05,13.949999999999998,0)" xlink:href="#av"/><use transform="matrix(0.05,0,0,0.05,18.95,0)" xlink:href="#ae"/></g><g id="s"><use transform="matrix(0.03703703703703704,0,0,0.03703703703703704,0,0)" xlink:href="#as"/><use transform="matrix(0.03703703703703704,0,0,0.03703703703703704,9.592592592592593,0)" xlink:href="#P"/><use transform="matrix(0.03703703703703704,0,0,0.03703703703703704,17,0)" xlink:href="#O"/><use transform="matrix(0.03703703703703704,0,0,0.03703703703703704,20.703703703703702,0)" xlink:href="#af"/><use transform="matrix(0.03703703703703704,0,0,0.03703703703703704,28.11111111111111,0)" xlink:href="#Q"/><use transform="matrix(0.03703703703703704,0,0,0.03703703703703704,32.51851851851852,0)" xlink:href="#R"/></g><g id="t"><use transform="matrix(0.03703703703703704,0,0,0.03703703703703704,0,0)" xlink:href="#W"/><use transform="matrix(0.03703703703703704,0,0,0.03703703703703704,6.666666666666668,0)" xlink:href="#O"/><use transform="matrix(0.03703703703703704,0,0,0.03703703703703704,10.370370370370372,0)" xlink:href="#ae"/><use transform="matrix(0.03703703703703704,0,0,0.03703703703703704,17.77777777777778,0)" xlink:href="#Q"/><use transform="matrix(0.03703703703703704,0,0,0.03703703703703704,22.185185185185187,0)" xlink:href="#P"/><use transform="matrix(0.03703703703703704,0,0,0.03703703703703704,29.592592592592595,0)" xlink:href="#ab"/></g><g id="u"><use transform="matrix(0.03703703703703704,0,0,0.03703703703703704,0,0)" xlink:href="#af"/><use transform="matrix(0.03703703703703704,0,0,0.03703703703703704,7.407407407407408,0)" xlink:href="#W"/><use transform="matrix(0.03703703703703704,0,0,0.03703703703703704,14.074074074074076,0)" xlink:href="#P"/><use transform="matrix(0.03703703703703704,0,0,0.03703703703703704,21.481481481481485,0)" xlink:href="#Q"/><use transform="matrix(0.03703703703703704,0,0,0.03703703703703704,25.888888888888893,0)" xlink:href="#au"/><use transform="matrix(0.03703703703703704,0,0,0.03703703703703704,28.407407407407412,0)" xlink:href="#W"/></g><g id="v"><use transform="matrix(0.03703703703703704,0,0,0.03703703703703704,0,0)" xlink:href="#ab"/><use transform="matrix(0.03703703703703704,0,0,0.03703703703703704,7.407407407407408,0)" xlink:href="#S"/><use transform="matrix(0.03703703703703704,0,0,0.03703703703703704,14.814814814814817,0)" xlink:href="#O"/><use transform="matrix(0.03703703703703704,0,0,0.03703703703703704,18.51851851851852,0)" xlink:href="#S"/></g><g id="w"><use transform="matrix(0.05,0,0,0.05,0,0)" xlink:href="#ao"/><use transform="matrix(0.05,0,0,0.05,10.950000000000001,0)" xlink:href="#ag"/><use transform="matrix(0.05,0,0,0.05,20.950000000000003,0)" xlink:href="#Q"/><use transform="matrix(0.05,0,0,0.05,26.900000000000002,0)" xlink:href="#ae"/><use transform="matrix(0.05,0,0,0.05,36.900000000000006,0)" xlink:href="#ad"/><use transform="matrix(0.05,0,0,0.05,49.85000000000001,0)" xlink:href="#W"/></g><g id="x"><use transform="matrix(0.05,0,0,0.05,0,0)" xlink:href="#X"/><use transform="matrix(0.05,0,0,0.05,12,0)" xlink:href="#Q"/><use transform="matrix(0.05,0,0,0.05,17.95,0)" xlink:href="#Q"/><use transform="matrix(0.05,0,0,0.05,23.9,0)" xlink:href="#ae"/><use transform="matrix(0.05,0,0,0.05,33.9,0)" xlink:href="#Q"/></g><g id="y"><use transform="matrix(0.03703703703703704,0,0,0.03703703703703704,0,0)" xlink:href="#U"/><use transform="matrix(0.03703703703703704,0,0,0.03703703703703704,6.666666666666668,0)" xlink:href="#S"/><use transform="matrix(0.03703703703703704,0,0,0.03703703703703704,14.074074074074076,0)" xlink:href="#N"/><use transform="matrix(0.03703703703703704,0,0,0.03703703703703704,17.000000000000004,0)" xlink:href="#T"/><use transform="matrix(0.03703703703703704,0,0,0.03703703703703704,19.925925925925934,0)" xlink:href="#ab"/><use transform="matrix(0.03703703703703704,0,0,0.03703703703703704,27.333333333333343,0)" xlink:href="#S"/><use transform="matrix(0.03703703703703704,0,0,0.03703703703703704,34.74074074074075,0)" xlink:href="#O"/><use transform="matrix(0.03703703703703704,0,0,0.03703703703703704,38.44444444444445,0)" xlink:href="#P"/></g><g id="z"><use transform="matrix(0.03703703703703704,0,0,0.03703703703703704,0,0)" xlink:href="#ab"/><use transform="matrix(0.03703703703703704,0,0,0.03703703703703704,7.407407407407408,0)" xlink:href="#S"/><use transform="matrix(0.03703703703703704,0,0,0.03703703703703704,14.814814814814817,0)" xlink:href="#O"/><use transform="matrix(0.03703703703703704,0,0,0.03703703703703704,18.51851851851852,0)" xlink:href="#S"/></g><g id="A"><use transform="matrix(0.03703703703703704,0,0,0.03703703703703704,0,0)" xlink:href="#S"/><use transform="matrix(0.03703703703703704,0,0,0.03703703703703704,7.407407407407408,0)" xlink:href="#R"/><use transform="matrix(0.03703703703703704,0,0,0.03703703703703704,14.814814814814817,0)" xlink:href="#ab"/></g><path fill="#3a414a" d="M143 0L79-87 56-68V0H24v-261h32v163l83-92h37l-77 82L181 0h-38" id="aw"/><g id="B"><use transform="matrix(0.03703703703703704,0,0,0.03703703703703704,0,0)" xlink:href="#O"/><use transform="matrix(0.03703703703703704,0,0,0.03703703703703704,3.703703703703704,0)" xlink:href="#ae"/><use transform="matrix(0.03703703703703704,0,0,0.03703703703703704,11.111111111111112,0)" xlink:href="#aw"/><use transform="matrix(0.03703703703703704,0,0,0.03703703703703704,17.77777777777778,0)" xlink:href="#P"/><use transform="matrix(0.03703703703703704,0,0,0.03703703703703704,25.185185185185187,0)" xlink:href="#R"/></g><g id="C"><use transform="matrix(0.05,0,0,0.05,0,0)" xlink:href="#as"/><use transform="matrix(0.05,0,0,0.05,12.950000000000001,0)" xlink:href="#P"/><use transform="matrix(0.05,0,0,0.05,22.950000000000003,0)" xlink:href="#O"/><use transform="matrix(0.05,0,0,0.05,27.950000000000003,0)" xlink:href="#af"/><use transform="matrix(0.05,0,0,0.05,37.95,0)" xlink:href="#Q"/><use transform="matrix(0.05,0,0,0.05,43.900000000000006,0)" xlink:href="#R"/></g><path fill="#3a414a" d="M9 0v-24l116-142H16v-24h144v24L44-24h123V0H9" id="ax"/><g id="D"><use transform="matrix(0.05,0,0,0.05,0,0)" xlink:href="#af"/><use transform="matrix(0.05,0,0,0.05,10,0)" xlink:href="#R"/><use transform="matrix(0.05,0,0,0.05,20,0)" xlink:href="#S"/><use transform="matrix(0.05,0,0,0.05,30,0)" xlink:href="#af"/><use transform="matrix(0.05,0,0,0.05,40,0)" xlink:href="#O"/><use transform="matrix(0.05,0,0,0.05,45,0)" xlink:href="#ag"/><use transform="matrix(0.05,0,0,0.05,55,0)" xlink:href="#ae"/><use transform="matrix(0.05,0,0,0.05,65,0)" xlink:href="#Q"/><use transform="matrix(0.05,0,0,0.05,70.95,0)" xlink:href="#T"/><use transform="matrix(0.05,0,0,0.05,74.9,0)" xlink:href="#ax"/><use transform="matrix(0.05,0,0,0.05,83.9,0)" xlink:href="#P"/><use transform="matrix(0.05,0,0,0.05,93.9,0)" xlink:href="#ab"/></g><path fill="#3a414a" d="M143 4C61 4 22-44 18-125c-5-107 100-154 193-111 17 8 29 25 37 43l-32 9c-13-25-37-40-76-40-61 0-88 39-88 99 0 61 29 100 91 101 35 0 62-11 79-27v-45h-74v-28h105v86C228-13 192 4 143 4" id="ay"/><g id="E"><use transform="matrix(0.05,0,0,0.05,0,0)" xlink:href="#ay"/><use transform="matrix(0.05,0,0,0.05,14,0)" xlink:href="#P"/><use transform="matrix(0.05,0,0,0.05,24,0)" xlink:href="#R"/><use transform="matrix(0.05,0,0,0.05,34,0)" xlink:href="#P"/><use transform="matrix(0.05,0,0,0.05,44,0)" xlink:href="#Q"/><use transform="matrix(0.05,0,0,0.05,49.95,0)" xlink:href="#S"/><use transform="matrix(0.05,0,0,0.05,59.95,0)" xlink:href="#O"/><use transform="matrix(0.05,0,0,0.05,64.95,0)" xlink:href="#P"/></g><g id="F"><use transform="matrix(0.05,0,0,0.05,0,0)" xlink:href="#O"/><use transform="matrix(0.05,0,0,0.05,5,0)" xlink:href="#ae"/><use transform="matrix(0.05,0,0,0.05,15,0)" xlink:href="#aw"/><use transform="matrix(0.05,0,0,0.05,24,0)" xlink:href="#P"/><use transform="matrix(0.05,0,0,0.05,34,0)" xlink:href="#R"/></g><path fill="#3a414a" d="M179-190L93 31C79 59 56 82 12 73V49c39 6 53-20 64-50L1-190h34L92-34l54-156h33" id="az"/><g id="G"><use transform="matrix(0.05,0,0,0.05,0,0)" xlink:href="#an"/><use transform="matrix(0.05,0,0,0.05,12.950000000000001,0)" xlink:href="#T"/><use transform="matrix(0.05,0,0,0.05,16.900000000000002,0)" xlink:href="#W"/><use transform="matrix(0.05,0,0,0.05,25.900000000000002,0)" xlink:href="#ac"/><use transform="matrix(0.05,0,0,0.05,35.900000000000006,0)" xlink:href="#N"/><use transform="matrix(0.05,0,0,0.05,39.85000000000001,0)" xlink:href="#S"/><use transform="matrix(0.05,0,0,0.05,49.85000000000001,0)" xlink:href="#az"/></g><path fill="#3a414a" d="M210-169c-67 3-38 105-44 169h-31v-121c0-29-5-50-35-48C34-165 62-65 56 0H25l-1-190h30c1 10-1 24 2 32 10-44 99-50 107 0 11-21 27-35 58-36 85-2 47 119 55 194h-31v-121c0-29-5-49-35-48" id="aA"/><g id="H"><use transform="matrix(0.05,0,0,0.05,0,0)" xlink:href="#av"/><use transform="matrix(0.05,0,0,0.05,5,0)" xlink:href="#ae"/><use transform="matrix(0.05,0,0,0.05,15,0)" xlink:href="#Q"/><use transform="matrix(0.05,0,0,0.05,20.95,0)" xlink:href="#aA"/><use transform="matrix(0.05,0,0,0.05,35.9,0)" xlink:href="#S"/><use transform="matrix(0.05,0,0,0.05,45.9,0)" xlink:href="#O"/><use transform="matrix(0.05,0,0,0.05,50.9,0)" xlink:href="#O"/><use transform="matrix(0.05,0,0,0.05,55.900000000000006,0)" xlink:href="#P"/><use transform="matrix(0.05,0,0,0.05,65.9,0)" xlink:href="#ab"/></g><g id="I"><use transform="matrix(0.05,0,0,0.05,0,0)" xlink:href="#P"/><use transform="matrix(0.05,0,0,0.05,10,0)" xlink:href="#Q"/><use transform="matrix(0.05,0,0,0.05,15.949999999999998,0)" xlink:href="#Q"/><use transform="matrix(0.05,0,0,0.05,21.9,0)" xlink:href="#ae"/><use transform="matrix(0.05,0,0,0.05,31.899999999999995,0)" xlink:href="#Q"/></g><g id="J"><use transform="matrix(0.03703703703703704,0,0,0.03703703703703704,0,0)" xlink:href="#an"/><use transform="matrix(0.03703703703703704,0,0,0.03703703703703704,9.592592592592593,0)" xlink:href="#T"/><use transform="matrix(0.03703703703703704,0,0,0.03703703703703704,12.518518518518517,0)" xlink:href="#W"/><use transform="matrix(0.03703703703703704,0,0,0.03703703703703704,19.185185185185187,0)" xlink:href="#ac"/><use transform="matrix(0.03703703703703704,0,0,0.03703703703703704,26.592592592592595,0)" xlink:href="#N"/><use transform="matrix(0.03703703703703704,0,0,0.03703703703703704,29.518518518518523,0)" xlink:href="#S"/><use transform="matrix(0.03703703703703704,0,0,0.03703703703703704,36.92592592592593,0)" xlink:href="#az"/></g><g id="K"><use transform="matrix(0.03703703703703704,0,0,0.03703703703703704,0,0)" xlink:href="#W"/><use transform="matrix(0.03703703703703704,0,0,0.03703703703703704,6.666666666666668,0)" xlink:href="#af"/><use transform="matrix(0.03703703703703704,0,0,0.03703703703703704,14.074074074074076,0)" xlink:href="#ah"/><use transform="matrix(0.03703703703703704,0,0,0.03703703703703704,20.740740740740744,0)" xlink:href="#ah"/><use transform="matrix(0.03703703703703704,0,0,0.03703703703703704,27.407407407407412,0)" xlink:href="#P"/><use transform="matrix(0.03703703703703704,0,0,0.03703703703703704,34.814814814814824,0)" xlink:href="#W"/><use transform="matrix(0.03703703703703704,0,0,0.03703703703703704,41.481481481481495,0)" xlink:href="#W"/><use transform="matrix(0.03703703703703704,0,0,0.03703703703703704,48.14814814814816,0)" xlink:href="#av"/><use transform="matrix(0.03703703703703704,0,0,0.03703703703703704,51.85185185185187,0)" xlink:href="#af"/><use transform="matrix(0.03703703703703704,0,0,0.03703703703703704,59.25925925925928,0)" xlink:href="#N"/></g><g id="L"><use transform="matrix(0.03703703703703704,0,0,0.03703703703703704,0,0)" xlink:href="#S"/><use transform="matrix(0.03703703703703704,0,0,0.03703703703703704,7.407407407407408,0)" xlink:href="#af"/><use transform="matrix(0.03703703703703704,0,0,0.03703703703703704,14.814814814814817,0)" xlink:href="#O"/><use transform="matrix(0.03703703703703704,0,0,0.03703703703703704,18.51851851851852,0)" xlink:href="#ag"/><use transform="matrix(0.03703703703703704,0,0,0.03703703703703704,25.92592592592593,0)" xlink:href="#P"/><use transform="matrix(0.03703703703703704,0,0,0.03703703703703704,33.333333333333336,0)" xlink:href="#R"/><use transform="matrix(0.03703703703703704,0,0,0.03703703703703704,40.74074074074075,0)" xlink:href="#O"/><use transform="matrix(0.03703703703703704,0,0,0.03703703703703704,44.44444444444445,0)" xlink:href="#T"/><use transform="matrix(0.03703703703703704,0,0,0.03703703703703704,47.370370370370374,0)" xlink:href="#ah"/><use transform="matrix(0.03703703703703704,0,0,0.03703703703703704,54.03703703703704,0)" xlink:href="#S"/><use transform="matrix(0.03703703703703704,0,0,0.03703703703703704,61.44444444444444,0)" xlink:href="#O"/><use transform="matrix(0.03703703703703704,0,0,0.03703703703703704,65.14814814814815,0)" xlink:href="#T"/><use transform="matrix(0.03703703703703704,0,0,0.03703703703703704,68.07407407407408,0)" xlink:href="#ae"/><use transform="matrix(0.03703703703703704,0,0,0.03703703703703704,75.48148148148148,0)" xlink:href="#R"/></g></defs></g></svg>