<svg xmlns="http://www.w3.org/2000/svg" xmlns:xlink="http://www.w3.org/1999/xlink" xmlns:lucid="lucid" width="340.92" height="721"><g transform="translate(-5719.577509901255 28.500032215779616)" lucid:page-tab-id="0_0"><path d="M5779.75 261.75c0 10.9-8.84 19.75-19.75 19.75-10.9 0-19.75-8.84-19.75-19.75 0-10.9 8.84-19.75 19.75-19.75 10.9 0 19.75 8.84 19.75 19.75z" stroke="#3a414a" fill="#fff"/><path d="M5760 281.5v47.3a27.6 27.6 0 0 0 4.28 14.76L5800 400m-40-63.2l-40 63.2m0-98.75h80" stroke="#3a414a" fill="none"/><path d="M5720 250a8 8 0 0 1 8-8h64a8 8 0 0 1 8 8v164a8 8 0 0 1-8 8h-64a8 8 0 0 1-8-8z" fill="none"/><use xlink:href="#a" transform="matrix(1,0,0,1,5640,400) translate(62.074999999999996 14.6)"/><use xlink:href="#b" transform="matrix(1,0,0,1,5640,400) translate(140.025 14.6)"/><path d="M6060 332c0 33.14-35.82 60-80 60s-80-26.86-80-60 35.82-60 80-60 80 26.86 80 60z" stroke="#3a414a" fill="#fff"/><use xlink:href="#c" transform="matrix(1,0,0,1,5900,272) translate(27.57999999999999 63.15)"/><use xlink:href="#d" transform="matrix(1,0,0,1,5900,272) translate(63.529999999999994 63.15)"/><path d="M6060 482c0 33.14-35.82 60-80 60s-80-26.86-80-60 35.82-60 80-60 80 26.86 80 60z" stroke="#3a414a" fill="#fff"/><use xlink:href="#e" transform="matrix(1,0,0,1,5900,422) translate(17.104999999999997 63.15)"/><use xlink:href="#d" transform="matrix(1,0,0,1,5900,422) translate(74.00500000000001 63.15)"/><path d="M6060 182c0 33.14-35.82 60-80 60s-80-26.86-80-60 35.82-60 80-60 80 26.86 80 60z" stroke="#3a414a" fill="#fff"/><use xlink:href="#f" transform="matrix(1,0,0,1,5900,122) translate(16.104999999999997 63.15)"/><use xlink:href="#d" transform="matrix(1,0,0,1,5900,122) translate(75.00500000000001 63.15)"/><path d="M6060 632c0 33.14-35.82 60-80 60s-80-26.86-80-60 35.82-60 80-60 80 26.86 80 60z" stroke="#3a414a" fill="#fff"/><use xlink:href="#g" transform="matrix(1,0,0,1,5900,572) translate(14.579999999999993 63.15)"/><use xlink:href="#d" transform="matrix(1,0,0,1,5900,572) translate(76.53 63.15)"/><path d="M5760.46 241.3l138.58-59.1" stroke="#3a414a" fill="none"/><path d="M5760.6 241.57l-.58-.07-1.1.03-.33.06 1.68-.74zM5899.5 182v.5l-.28.14-.38-.88.68-.28z" stroke="#3a414a" stroke-width=".05" fill="#3a414a"/><path d="M5760.2 338.2l139.1 293.35M5760.22 338.2l-1.5-3.18" stroke="#3a414a" fill="none"/><path d="M5899.5 632v.4l.03.78-.68-1.44.67-.32z" stroke="#3a414a" stroke-width=".05" fill="#3a414a"/><path d="M5760.83 321.3l138.34 160.32M5760.84 321.32l-2.3-2.66" stroke="#3a414a" fill="none"/><path d="M5899.5 482v.4l.02.35-.72-.83.72-.62z" stroke="#3a414a" stroke-width=".05" fill="#3a414a"/><path d="M5761 320.93h139.35M5761 320.93h-3.5" stroke="#3a414a" fill="none"/><path d="M5900.95 320.52l-.2.9h-.4v-.96h.6z" stroke="#3a414a" stroke-width=".05" fill="#3a414a"/><path d="M6060 32c0 33.14-35.82 60-80 60s-80-26.86-80-60 35.82-60 80-60 80 26.86 80 60z" stroke="#3a414a" fill="#fff"/><g><use xlink:href="#h" transform="matrix(1,0,0,1,5900,-28) translate(18.654999999999994 63.15)"/><use xlink:href="#i" transform="matrix(1,0,0,1,5900,-28) translate(63.455 63.15)"/></g><path d="M5760.28 241.08l138.94-208.66" stroke="#3a414a" fill="none"/><path d="M5760.68 241.34l-.15.22-.5-.06h-.6l.46-.7zM5899.5 32v.62l-.68-.46.7-1.06z" stroke="#3a414a" stroke-width=".05" fill="#3a414a"/><defs><path fill="#3a414a" d="M185-189c-5-48-123-54-124 2 14 75 158 14 163 119 3 78-121 87-175 55-17-10-28-26-33-46l33-7c5 56 141 63 141-1 0-78-155-14-162-118-5-82 145-84 179-34 5 7 8 16 11 25" id="j"/><path fill="#3a414a" d="M59-47c-2 24 18 29 38 22v24C64 9 27 4 27-40v-127H5v-23h24l9-43h21v43h35v23H59v120" id="k"/><path fill="#3a414a" d="M141-36C126-15 110 5 73 4 37 3 15-17 15-53c-1-64 63-63 125-63 3-35-9-54-41-54-24 1-41 7-42 31l-33-3c5-37 33-52 76-52 45 0 72 20 72 64v82c-1 20 7 32 28 27v20c-31 9-61-2-59-35zM48-53c0 20 12 33 32 33 41-3 63-29 60-74-43 2-92-5-92 41" id="l"/><path fill="#3a414a" d="M117-194c89-4 53 116 60 194h-32v-121c0-31-8-49-39-48C34-167 62-67 57 0H25l-1-190h30c1 10-1 24 2 32 11-22 29-35 61-36" id="m"/><path fill="#3a414a" d="M85-194c31 0 48 13 60 33l-1-100h32l1 261h-30c-2-10 0-23-3-31C134-8 116 4 85 4 32 4 16-35 15-94c0-66 23-100 70-100zm9 24c-40 0-46 34-46 75 0 40 6 74 45 74 42 0 51-32 51-76 0-42-9-74-50-73" id="n"/><path fill="#3a414a" d="M114-163C36-179 61-72 57 0H25l-1-190h30c1 12-1 29 2 39 6-27 23-49 58-41v29" id="o"/><g id="a"><use transform="matrix(0.05,0,0,0.05,0,0)" xlink:href="#j"/><use transform="matrix(0.05,0,0,0.05,12,0)" xlink:href="#k"/><use transform="matrix(0.05,0,0,0.05,17,0)" xlink:href="#l"/><use transform="matrix(0.05,0,0,0.05,27,0)" xlink:href="#m"/><use transform="matrix(0.05,0,0,0.05,37,0)" xlink:href="#n"/><use transform="matrix(0.05,0,0,0.05,47,0)" xlink:href="#l"/><use transform="matrix(0.05,0,0,0.05,57,0)" xlink:href="#o"/><use transform="matrix(0.05,0,0,0.05,62.95,0)" xlink:href="#n"/></g><path fill="#3a414a" d="M232-93c-1 65-40 97-104 97C67 4 28-28 28-90v-158h33c8 89-33 224 67 224 102 0 64-133 71-224h33v155" id="p"/><path fill="#3a414a" d="M135-143c-3-34-86-38-87 0 15 53 115 12 119 90S17 21 10-45l28-5c4 36 97 45 98 0-10-56-113-15-118-90-4-57 82-63 122-42 12 7 21 19 24 35" id="q"/><path fill="#3a414a" d="M100-194c63 0 86 42 84 106H49c0 40 14 67 53 68 26 1 43-12 49-29l28 8c-11 28-37 45-77 45C44 4 14-33 15-96c1-61 26-98 85-98zm52 81c6-60-76-77-97-28-3 7-6 17-6 28h103" id="r"/><g id="b"><use transform="matrix(0.05,0,0,0.05,0,0)" xlink:href="#p"/><use transform="matrix(0.05,0,0,0.05,12.950000000000001,0)" xlink:href="#q"/><use transform="matrix(0.05,0,0,0.05,21.950000000000003,0)" xlink:href="#r"/><use transform="matrix(0.05,0,0,0.05,31.950000000000003,0)" xlink:href="#o"/></g><path d="M30 0v-248h187v28H63v79h144v27H63v87h162V0H30" id="s"/><path d="M85-194c31 0 48 13 60 33l-1-100h32l1 261h-30c-2-10 0-23-3-31C134-8 116 4 85 4 32 4 16-35 15-94c0-66 23-100 70-100zm9 24c-40 0-46 34-46 75 0 40 6 74 45 74 42 0 51-32 51-76 0-42-9-74-50-73" id="t"/><path d="M24-231v-30h32v30H24zM24 0v-190h32V0H24" id="u"/><path d="M59-47c-2 24 18 29 38 22v24C64 9 27 4 27-40v-127H5v-23h24l9-43h21v43h35v23H59v120" id="v"/><g id="c"><use transform="matrix(0.05,0,0,0.05,0,0)" xlink:href="#s"/><use transform="matrix(0.05,0,0,0.05,12,0)" xlink:href="#t"/><use transform="matrix(0.05,0,0,0.05,22,0)" xlink:href="#u"/><use transform="matrix(0.05,0,0,0.05,25.950000000000003,0)" xlink:href="#v"/></g><path d="M141 0L90-78 38 0H4l68-98-65-92h35l48 74 47-74h35l-64 92 68 98h-35" id="w"/><path d="M100-194c63 0 86 42 84 106H49c0 40 14 67 53 68 26 1 43-12 49-29l28 8c-11 28-37 45-77 45C44 4 14-33 15-96c1-61 26-98 85-98zm52 81c6-60-76-77-97-28-3 7-6 17-6 28h103" id="x"/><path d="M114-163C36-179 61-72 57 0H25l-1-190h30c1 12-1 29 2 39 6-27 23-49 58-41v29" id="y"/><path d="M96-169c-40 0-48 33-48 73s9 75 48 75c24 0 41-14 43-38l32 2c-6 37-31 61-74 61-59 0-76-41-82-99-10-93 101-131 147-64 4 7 5 14 7 22l-32 3c-4-21-16-35-41-35" id="z"/><path d="M135-143c-3-34-86-38-87 0 15 53 115 12 119 90S17 21 10-45l28-5c4 36 97 45 98 0-10-56-113-15-118-90-4-57 82-63 122-42 12 7 21 19 24 35" id="A"/><g id="d"><use transform="matrix(0.05,0,0,0.05,0,0)" xlink:href="#s"/><use transform="matrix(0.05,0,0,0.05,12,0)" xlink:href="#w"/><use transform="matrix(0.05,0,0,0.05,21,0)" xlink:href="#x"/><use transform="matrix(0.05,0,0,0.05,31,0)" xlink:href="#y"/><use transform="matrix(0.05,0,0,0.05,36.95,0)" xlink:href="#z"/><use transform="matrix(0.05,0,0,0.05,45.95,0)" xlink:href="#u"/><use transform="matrix(0.05,0,0,0.05,49.900000000000006,0)" xlink:href="#A"/><use transform="matrix(0.05,0,0,0.05,58.900000000000006,0)" xlink:href="#x"/></g><path d="M30-248c118-7 216 8 213 122C240-48 200 0 122 0H30v-248zM63-27c89 8 146-16 146-99s-60-101-146-95v194" id="B"/><path d="M24 0v-261h32V0H24" id="C"/><g id="e"><use transform="matrix(0.05,0,0,0.05,0,0)" xlink:href="#B"/><use transform="matrix(0.05,0,0,0.05,12.950000000000001,0)" xlink:href="#x"/><use transform="matrix(0.05,0,0,0.05,22.950000000000003,0)" xlink:href="#C"/><use transform="matrix(0.05,0,0,0.05,26.900000000000002,0)" xlink:href="#x"/><use transform="matrix(0.05,0,0,0.05,36.900000000000006,0)" xlink:href="#v"/><use transform="matrix(0.05,0,0,0.05,41.900000000000006,0)" xlink:href="#x"/></g><path d="M212-179c-10-28-35-45-73-45-59 0-87 40-87 99 0 60 29 101 89 101 43 0 62-24 78-52l27 14C228-24 195 4 139 4 59 4 22-46 18-125c-6-104 99-153 187-111 19 9 31 26 39 46" id="D"/><path d="M141-36C126-15 110 5 73 4 37 3 15-17 15-53c-1-64 63-63 125-63 3-35-9-54-41-54-24 1-41 7-42 31l-33-3c5-37 33-52 76-52 45 0 72 20 72 64v82c-1 20 7 32 28 27v20c-31 9-61-2-59-35zM48-53c0 20 12 33 32 33 41-3 63-29 60-74-43 2-92-5-92 41" id="E"/><g id="f"><use transform="matrix(0.05,0,0,0.05,0,0)" xlink:href="#D"/><use transform="matrix(0.05,0,0,0.05,12.950000000000001,0)" xlink:href="#y"/><use transform="matrix(0.05,0,0,0.05,18.900000000000002,0)" xlink:href="#x"/><use transform="matrix(0.05,0,0,0.05,28.900000000000002,0)" xlink:href="#E"/><use transform="matrix(0.05,0,0,0.05,38.900000000000006,0)" xlink:href="#v"/><use transform="matrix(0.05,0,0,0.05,43.900000000000006,0)" xlink:href="#x"/></g><path d="M185-189c-5-48-123-54-124 2 14 75 158 14 163 119 3 78-121 87-175 55-17-10-28-26-33-46l33-7c5 56 141 63 141-1 0-78-155-14-162-118-5-82 145-84 179-34 5 7 8 16 11 25" id="F"/><path d="M106-169C34-169 62-67 57 0H25v-261h32l-1 103c12-21 28-36 61-36 89 0 53 116 60 194h-32v-121c2-32-8-49-39-48" id="G"/><g id="g"><use transform="matrix(0.05,0,0,0.05,0,0)" xlink:href="#F"/><use transform="matrix(0.05,0,0,0.05,12,0)" xlink:href="#x"/><use transform="matrix(0.05,0,0,0.05,22,0)" xlink:href="#E"/><use transform="matrix(0.05,0,0,0.05,32,0)" xlink:href="#y"/><use transform="matrix(0.05,0,0,0.05,37.95,0)" xlink:href="#z"/><use transform="matrix(0.05,0,0,0.05,46.95,0)" xlink:href="#G"/></g><path d="M63-220v92h138v28H63V0H30v-248h175v28H63" id="H"/><g id="h"><use transform="matrix(0.05,0,0,0.05,0,0)" xlink:href="#H"/><use transform="matrix(0.05,0,0,0.05,10.950000000000001,0)" xlink:href="#u"/><use transform="matrix(0.05,0,0,0.05,14.9,0)" xlink:href="#C"/><use transform="matrix(0.05,0,0,0.05,18.85,0)" xlink:href="#v"/><use transform="matrix(0.05,0,0,0.05,23.85,0)" xlink:href="#x"/><use transform="matrix(0.05,0,0,0.05,33.85,0)" xlink:href="#y"/></g><g id="i"><use transform="matrix(0.05,0,0,0.05,0,0)" xlink:href="#s"/><use transform="matrix(0.05,0,0,0.05,12,0)" xlink:href="#w"/><use transform="matrix(0.05,0,0,0.05,21,0)" xlink:href="#x"/><use transform="matrix(0.05,0,0,0.05,31,0)" xlink:href="#y"/><use transform="matrix(0.05,0,0,0.05,36.95,0)" xlink:href="#z"/><use transform="matrix(0.05,0,0,0.05,45.95,0)" xlink:href="#u"/><use transform="matrix(0.05,0,0,0.05,49.900000000000006,0)" xlink:href="#A"/><use transform="matrix(0.05,0,0,0.05,58.900000000000006,0)" xlink:href="#x"/><use transform="matrix(0.05,0,0,0.05,68.9,0)" xlink:href="#A"/></g></defs></g></svg>