<svg xmlns="http://www.w3.org/2000/svg" xmlns:xlink="http://www.w3.org/1999/xlink" xmlns:lucid="lucid" width="1530.5" height="1333.57"><g transform="translate(-650 -106.43337287749561)" lucid:page-tab-id="0_0"><path d="M860 114.93a8 8 0 0 1 8-8h284a8 8 0 0 1 8 8v216a8 8 0 0 1-8 8H868a8 8 0 0 1-8-8z" fill="#fff"/><path d="M860 146.93v33h300v-33" fill="#fff"/><path d="M860 178.93v33h300v-33" fill="#fff"/><path d="M860 210.93v33h300v-33" fill="#fff"/><path d="M860 242.93v33h300v-33" fill="#fff"/><path d="M860 274.93v33h300v-33" fill="#fff"/><path d="M860 306.93v24a8 8 0 0 0 8 8h284a8 8 0 0 0 8-8v-24" fill="#fff"/><path d="M860 146.93h300M860 114.93a8 8 0 0 1 8-8h284a8 8 0 0 1 8 8v216a8 8 0 0 1-8 8H868a8 8 0 0 1-8-8zM920 146.93v192M1071.2 146.93v192" stroke="#3a414a" fill="none"/><use xlink:href="#a" transform="matrix(1,0,0,1,870,106.93337288626583) translate(118.025 23.6)"/><use xlink:href="#b" transform="matrix(1,0,0,1,865,149.43337288626583) translate(13 17.1)"/><use xlink:href="#c" transform="matrix(1,0,0,1,925,149.43337288626583) translate(59.025 17.1)"/><use xlink:href="#d" transform="matrix(1,0,0,1,1076.2000000000003,149.43337288626583) translate(17.55 17.1)"/><use xlink:href="#e" transform="matrix(1,0,0,1,865,181.43337288626583) translate(12.524999999999999 17.1)"/><use xlink:href="#f" transform="matrix(1,0,0,1,925,181.43337288626583) translate(49.574999999999996 17.1)"/><use xlink:href="#d" transform="matrix(1,0,0,1,1076.2000000000003,181.43337288626583) translate(17.55 17.1)"/><use xlink:href="#g" transform="matrix(1,0,0,1,925,213.43337288626583) translate(11.574999999999996 17.1)"/><use xlink:href="#d" transform="matrix(1,0,0,1,1076.2000000000003,213.43337288626583) translate(17.55 17.1)"/><use xlink:href="#h" transform="matrix(1,0,0,1,925,245.43337288626583) translate(40.05 17.1)"/><use xlink:href="#i" transform="matrix(1,0,0,1,1076.2000000000003,245.43337288626583) translate(7.524999999999999 17.1)"/><use xlink:href="#j" transform="matrix(1,0,0,1,925,277.43337288626583) translate(51.55 17.1)"/><use xlink:href="#k" transform="matrix(1,0,0,1,1076.2000000000003,277.43337288626583) translate(12.55 17.1)"/><use xlink:href="#l" transform="matrix(1,0,0,1,925,309.43337288626583) translate(46.575 17.1)"/><use xlink:href="#m" transform="matrix(1,0,0,1,1076.2000000000003,309.43337288626583) translate(-1.4500000000000028 17.1)"/><path d="M1299.5 126.93H1252a12 12 0 0 0-12 12v172a12 12 0 0 1-12 12h-47.5M1319.5 126.93h-20m0-10v20M1160.5 322.93h20m0 10v-20" stroke="#3a414a" fill="none"/><path d="M1320 114.93a8 8 0 0 1 8-8h284a8 8 0 0 1 8 8v312a8 8 0 0 1-8 8h-284a8 8 0 0 1-8-8z" fill="#fff"/><path d="M1320 146.93v33h300v-33" fill="#fff"/><path d="M1320 178.93v33h300v-33" fill="#fff"/><path d="M1320 210.93v33h300v-33" fill="#fff"/><path d="M1320 242.93v33h300v-33" fill="#fff"/><path d="M1320 274.93v33h300v-33" fill="#fff"/><path d="M1320 306.93v33h300v-33" fill="#fff"/><path d="M1320 338.93v33h300v-33" fill="#fff"/><path d="M1320 370.93v33h300v-33" fill="#fff"/><path d="M1320 402.93v24a8 8 0 0 0 8 8h284a8 8 0 0 0 8-8v-24" fill="#fff"/><path d="M1320 146.93h300M1320 114.93a8 8 0 0 1 8-8h284a8 8 0 0 1 8 8v312a8 8 0 0 1-8 8h-284a8 8 0 0 1-8-8zM1508.74 146.93v288" stroke="#3a414a" fill="none"/><use xlink:href="#l" transform="matrix(1,0,0,1,1330,106.93337288626583) translate(115.575 23.6)"/><use xlink:href="#n" transform="matrix(1,0,0,1,1325,149.43337288626583) translate(51.1 17.1)"/><use xlink:href="#d" transform="matrix(1,0,0,1,1513.7401102270182,149.43337288626583) translate(29.05 17.1)"/><use xlink:href="#o" transform="matrix(1,0,0,1,1325,181.43337288626583) translate(51.575 17.1)"/><use xlink:href="#d" transform="matrix(1,0,0,1,1513.7401102270182,181.43337288626583) translate(29.05 17.1)"/><use xlink:href="#p" transform="matrix(1,0,0,1,1325,213.43337288626583) translate(62.55 17.1)"/><use xlink:href="#d" transform="matrix(1,0,0,1,1513.7401102270182,213.43337288626583) translate(29.05 17.1)"/><use xlink:href="#q" transform="matrix(1,0,0,1,1325,245.43337288626583) translate(77.525 17.1)"/><use xlink:href="#d" transform="matrix(1,0,0,1,1513.7401102270182,245.43337288626583) translate(29.05 17.1)"/><use xlink:href="#r" transform="matrix(1,0,0,1,1325,277.43337288626583) translate(40.05 17.1)"/><use xlink:href="#k" transform="matrix(1,0,0,1,1513.7401102270182,277.43337288626583) translate(24.05 17.1)"/><use xlink:href="#s" transform="matrix(1,0,0,1,1325,309.43337288626583) translate(58.574999999999996 17.1)"/><use xlink:href="#i" transform="matrix(1,0,0,1,1513.7401102270182,309.43337288626583) translate(19.025 17.1)"/><use xlink:href="#t" transform="matrix(1,0,0,1,1325,341.43337288626583) translate(75.5 17.1)"/><use xlink:href="#d" transform="matrix(1,0,0,1,1513.7401102270182,341.43337288626583) translate(29.05 17.1)"/><use xlink:href="#u" transform="matrix(1,0,0,1,1325,373.43337288626583) translate(53.075 17.1)"/><use xlink:href="#v" transform="matrix(1,0,0,1,1513.7401102270182,373.43337288626583) translate(32.025 17.1)"/><use xlink:href="#w" transform="matrix(1,0,0,1,1325,405.43337288626583) translate(10.574999999999989 17.1)"/><use xlink:href="#m" transform="matrix(1,0,0,1,1513.7401102270182,405.43337288626583) translate(10.049999999999997 17.1)"/><path d="M1780 114.93a8 8 0 0 1 8-8h224a8 8 0 0 1 8 8v536a8 8 0 0 1-8 8h-224a8 8 0 0 1-8-8z" fill="#fff"/><path d="M1780 146.93v33h240v-33" fill="#fff"/><path d="M1780 178.93v33h240v-33" fill="#fff"/><path d="M1780 210.93v33h240v-33" fill="#fff"/><path d="M1780 242.93v33h240v-33" fill="#fff"/><path d="M1780 274.93v33h240v-33" fill="#fff"/><path d="M1780 306.93v33h240v-33" fill="#fff"/><path d="M1780 338.93v33h240v-33" fill="#fff"/><path d="M1780 370.93v33h240v-33" fill="#fff"/><path d="M1780 402.93v33h240v-33" fill="#fff"/><path d="M1780 434.93v33h240v-33" fill="#fff"/><path d="M1780 466.93v33h240v-33" fill="#fff"/><path d="M1780 498.93v33h240v-33" fill="#fff"/><path d="M1780 530.93v33h240v-33" fill="#fff"/><path d="M1780 562.93v33h240v-33" fill="#fff"/><path d="M1780 594.93v33h240v-33" fill="#fff"/><path d="M1780 626.93v24a8 8 0 0 0 8 8h224a8 8 0 0 0 8-8v-24" fill="#fff"/><path d="M1780 146.93h240M1780 114.93a8 8 0 0 1 8-8h224a8 8 0 0 1 8 8v536a8 8 0 0 1-8 8h-224a8 8 0 0 1-8-8zM1913 146.93v512" stroke="#3a414a" fill="none"/><use xlink:href="#x" transform="matrix(1,0,0,1,1790,106.93337288626583) translate(30.575000000000003 23.6)"/><use xlink:href="#y" transform="matrix(1,0,0,1,1785,149.43337288626583) translate(35.55 17.1)"/><use xlink:href="#z" transform="matrix(1,0,0,1,1918,149.43337288626583) translate(18.049999999999997 17.1)"/><use xlink:href="#A" transform="matrix(1,0,0,1,1785,181.43337288626583) translate(37.025 17.1)"/><use xlink:href="#z" transform="matrix(1,0,0,1,1918,181.43337288626583) translate(18.049999999999997 17.1)"/><use xlink:href="#B" transform="matrix(1,0,0,1,1785,213.43337288626583) translate(41.05 17.1)"/><use xlink:href="#z" transform="matrix(1,0,0,1,1918,213.43337288626583) translate(18.049999999999997 17.1)"/><use xlink:href="#C" transform="matrix(1,0,0,1,1785,245.43337288626583) translate(29.025 17.1)"/><use xlink:href="#z" transform="matrix(1,0,0,1,1918,245.43337288626583) translate(18.049999999999997 17.1)"/><use xlink:href="#D" transform="matrix(1,0,0,1,1785,277.43337288626583) translate(42.5 17.1)"/><use xlink:href="#z" transform="matrix(1,0,0,1,1918,277.43337288626583) translate(18.049999999999997 17.1)"/><use xlink:href="#E" transform="matrix(1,0,0,1,1785,309.43337288626583) translate(27.049999999999997 17.1)"/><use xlink:href="#z" transform="matrix(1,0,0,1,1918,309.43337288626583) translate(18.049999999999997 17.1)"/><use xlink:href="#F" transform="matrix(1,0,0,1,1785,341.43337288626583) translate(40 17.1)"/><use xlink:href="#z" transform="matrix(1,0,0,1,1918,341.43337288626583) translate(18.049999999999997 17.1)"/><use xlink:href="#G" transform="matrix(1,0,0,1,1785,373.43337288626583) translate(27.049999999999997 17.1)"/><use xlink:href="#z" transform="matrix(1,0,0,1,1918,373.43337288626583) translate(18.049999999999997 17.1)"/><use xlink:href="#H" transform="matrix(1,0,0,1,1785,405.43337288626583) translate(21.575000000000003 17.1)"/><use xlink:href="#z" transform="matrix(1,0,0,1,1918,405.43337288626583) translate(18.049999999999997 17.1)"/><use xlink:href="#I" transform="matrix(1,0,0,1,1785,437.43337288626583) translate(15.625 17.1)"/><use xlink:href="#z" transform="matrix(1,0,0,1,1918,437.43337288626583) translate(18.049999999999997 17.1)"/><use xlink:href="#J" transform="matrix(1,0,0,1,1785,469.43337288626583) translate(10.149999999999991 17.1)"/><use xlink:href="#z" transform="matrix(1,0,0,1,1918,469.43337288626583) translate(18.049999999999997 17.1)"/><use xlink:href="#K" transform="matrix(1,0,0,1,1785,501.43337288626583) translate(45.025 17.1)"/><use xlink:href="#z" transform="matrix(1,0,0,1,1918,501.43337288626583) translate(18.049999999999997 17.1)"/><use xlink:href="#L" transform="matrix(1,0,0,1,1785,533.4333728862658) translate(27.075000000000003 17.1)"/><use xlink:href="#z" transform="matrix(1,0,0,1,1918,533.4333728862658) translate(18.049999999999997 17.1)"/><use xlink:href="#M" transform="matrix(1,0,0,1,1785,565.4333728862658) translate(21.599999999999994 17.1)"/><use xlink:href="#z" transform="matrix(1,0,0,1,1918,565.4333728862658) translate(18.049999999999997 17.1)"/><use xlink:href="#N" transform="matrix(1,0,0,1,1785,597.4333728862658) translate(33.575 17.1)"/><use xlink:href="#z" transform="matrix(1,0,0,1,1918,597.4333728862658) translate(18.049999999999997 17.1)"/><use xlink:href="#O" transform="matrix(1,0,0,1,1785,629.4333728862658) translate(28.099999999999994 17.1)"/><use xlink:href="#z" transform="matrix(1,0,0,1,1918,629.4333728862658) translate(18.049999999999997 17.1)"/><path d="M1759.5 126.93H1712a12 12 0 0 0-12 12v268a12 12 0 0 1-12 12h-47.5M1779.5 126.93h-20m0-10v20M1620.5 418.93h20m0 10v-20" stroke="#3a414a" fill="none"/><path d="M1320 488a8 8 0 0 1 8-8h344a8 8 0 0 1 8 8v216a8 8 0 0 1-8 8h-344a8 8 0 0 1-8-8z" fill="#fff"/><path d="M1320 520v33h360v-33" fill="#fff"/><path d="M1320 552v33h360v-33" fill="#fff"/><path d="M1320 584v33h360v-33" fill="#fff"/><path d="M1320 616v33h360v-33" fill="#fff"/><path d="M1320 648v33h360v-33" fill="#fff"/><path d="M1320 680v24a8 8 0 0 0 8 8h344a8 8 0 0 0 8-8v-24" fill="#fff"/><path d="M1320 520h360M1320 488a8 8 0 0 1 8-8h344a8 8 0 0 1 8 8v216a8 8 0 0 1-8 8h-344a8 8 0 0 1-8-8zM1380 520v192M1620 520v192" stroke="#3a414a" fill="none"/><use xlink:href="#P" transform="matrix(1,0,0,1,1330,480) translate(103.1 23.6)"/><use xlink:href="#b" transform="matrix(1,0,0,1,1325,522.5) translate(13 17.1)"/><use xlink:href="#c" transform="matrix(1,0,0,1,1385,522.5) translate(103.025 17.1)"/><use xlink:href="#d" transform="matrix(1,0,0,1,1625,522.5) translate(3.0500000000000007 17.1)"/><use xlink:href="#e" transform="matrix(1,0,0,1,1325,554.5) translate(12.524999999999999 17.1)"/><use xlink:href="#Q" transform="matrix(1,0,0,1,1385,554.5) translate(92.525 17.1)"/><use xlink:href="#d" transform="matrix(1,0,0,1,1625,554.5) translate(3.0500000000000007 17.1)"/><use xlink:href="#R" transform="matrix(1,0,0,1,1385,586.5) translate(71.57499999999999 17.1)"/><use xlink:href="#d" transform="matrix(1,0,0,1,1625,586.5) translate(3.0500000000000007 17.1)"/><use xlink:href="#S" transform="matrix(1,0,0,1,1385,618.5) translate(73.05 17.1)"/><use xlink:href="#d" transform="matrix(1,0,0,1,1625,618.5) translate(3.0500000000000007 17.1)"/><use xlink:href="#T" transform="matrix(1,0,0,1,1385,650.5) translate(31.67500000000001 17.1)"/><use xlink:href="#d" transform="matrix(1,0,0,1,1625,650.5) translate(3.0500000000000007 17.1)"/><use xlink:href="#U" transform="matrix(1,0,0,1,1385,682.5) translate(69.575 17.1)"/><use xlink:href="#k" transform="matrix(1,0,0,1,1625,682.5) translate(-1.9499999999999993 17.1)"/><path d="M860 488a8 8 0 0 1 8-8h344a8 8 0 0 1 8 8v248a8 8 0 0 1-8 8H868a8 8 0 0 1-8-8z" fill="#fff"/><path d="M860 520v33h360v-33" fill="#fff"/><path d="M860 552v33h360v-33" fill="#fff"/><path d="M860 584v33h360v-33" fill="#fff"/><path d="M860 616v33h360v-33" fill="#fff"/><path d="M860 648v33h360v-33" fill="#fff"/><path d="M860 680v33h360v-33" fill="#fff"/><path d="M860 712v24a8 8 0 0 0 8 8h344a8 8 0 0 0 8-8v-24" fill="#fff"/><path d="M860 520h360M860 488a8 8 0 0 1 8-8h344a8 8 0 0 1 8 8v248a8 8 0 0 1-8 8H868a8 8 0 0 1-8-8zM920 520v224M1160 520v224" stroke="#3a414a" fill="none"/><use xlink:href="#V" transform="matrix(1,0,0,1,870,480) translate(109.57499999999999 23.6)"/><use xlink:href="#b" transform="matrix(1,0,0,1,865,522.5) translate(13 17.1)"/><use xlink:href="#c" transform="matrix(1,0,0,1,925,522.5) translate(103.025 17.1)"/><use xlink:href="#d" transform="matrix(1,0,0,1,1165,522.5) translate(3.0500000000000007 17.1)"/><use xlink:href="#W" transform="matrix(1,0,0,1,865,554.5) translate(13.524999999999999 17.1)"/><use xlink:href="#X" transform="matrix(1,0,0,1,925,554.5) translate(90.025 17.1)"/><use xlink:href="#d" transform="matrix(1,0,0,1,1165,554.5) translate(3.0500000000000007 17.1)"/><use xlink:href="#Q" transform="matrix(1,0,0,1,925,586.5) translate(92.525 17.1)"/><use xlink:href="#d" transform="matrix(1,0,0,1,1165,586.5) translate(3.0500000000000007 17.1)"/><use xlink:href="#R" transform="matrix(1,0,0,1,925,618.5) translate(71.57499999999999 17.1)"/><use xlink:href="#d" transform="matrix(1,0,0,1,1165,618.5) translate(3.0500000000000007 17.1)"/><use xlink:href="#S" transform="matrix(1,0,0,1,925,650.5) translate(73.05 17.1)"/><use xlink:href="#d" transform="matrix(1,0,0,1,1165,650.5) translate(3.0500000000000007 17.1)"/><use xlink:href="#T" transform="matrix(1,0,0,1,925,682.5) translate(31.67500000000001 17.1)"/><use xlink:href="#d" transform="matrix(1,0,0,1,1165,682.5) translate(3.0500000000000007 17.1)"/><use xlink:href="#U" transform="matrix(1,0,0,1,925,714.5) translate(69.575 17.1)"/><use xlink:href="#k" transform="matrix(1,0,0,1,1165,714.5) translate(-1.9499999999999993 17.1)"/><path d="M839.5 162.93H812a12 12 0 0 0-12 12V556a12 12 0 0 0 12 12h28.1M859.5 162.93h-20m0-10v20M859.28 568h-20m20-10l-20 10m20 10l-20-10" stroke="#3a414a" fill="none"/><path d="M860 893.07a8 8 0 0 1 8-8h314a8 8 0 0 1 8 8v184a8 8 0 0 1-8 8H868a8 8 0 0 1-8-8z" fill="#fff"/><path d="M860 925.07v33h330v-33" fill="#fff"/><path d="M860 957.07v33h330v-33" fill="#fff"/><path d="M860 989.07v33h330v-33" fill="#fff"/><path d="M860 1021.07v33h330v-33" fill="#fff"/><path d="M860 1053.07v24a8 8 0 0 0 8 8h314a8 8 0 0 0 8-8v-24" fill="#fff"/><path d="M860 925.07h330M860 893.07a8 8 0 0 1 8-8h314a8 8 0 0 1 8 8v184a8 8 0 0 1-8 8H868a8 8 0 0 1-8-8zM1064.18 925.07v160" stroke="#3a414a" fill="none"/><use xlink:href="#Y" transform="matrix(1,0,0,1,870,885.0666271137342) translate(104.57499999999999 23.6)"/><use xlink:href="#Z" transform="matrix(1,0,0,1,865,927.5666271137342) translate(60.075 17.1)"/><use xlink:href="#i" transform="matrix(1,0,0,1,1069.1797655926234,927.5666271137342) translate(26.025 17.1)"/><use xlink:href="#aa" transform="matrix(1,0,0,1,865,959.5666271137342) translate(64.05 17.1)"/><use xlink:href="#m" transform="matrix(1,0,0,1,1069.1797655926234,959.5666271137342) translate(17.049999999999997 17.1)"/><use xlink:href="#ab" transform="matrix(1,0,0,1,865,991.5666271137342) translate(9.949999999999989 17.1)"/><use xlink:href="#z" transform="matrix(1,0,0,1,1069.1797655926234,991.5666271137342) translate(27.549999999999997 17.1)"/><use xlink:href="#ac" transform="matrix(1,0,0,1,865,1023.5666271137342) translate(80 17.1)"/><use xlink:href="#d" transform="matrix(1,0,0,1,1069.1797655926234,1023.5666271137342) translate(36.05 17.1)"/><use xlink:href="#ad" transform="matrix(1,0,0,1,865,1055.5666271137343) translate(81 17.1)"/><use xlink:href="#ae" transform="matrix(1,0,0,1,1069.1797655926234,1055.5666271137343) translate(12.049999999999997 17.1)"/><path d="M1400 893.07a8 8 0 0 1 8-8h184a8 8 0 0 1 8 8v120a8 8 0 0 1-8 8h-184a8 8 0 0 1-8-8z" fill="#fff"/><path d="M1400 925.07v33h200v-33" fill="#fff"/><path d="M1400 957.07v33h200v-33" fill="#fff"/><path d="M1400 989.07v24a8 8 0 0 0 8 8h184a8 8 0 0 0 8-8v-24" fill="#fff"/><path d="M1400 925.07h200M1400 893.07a8 8 0 0 1 8-8h184a8 8 0 0 1 8 8v120a8 8 0 0 1-8 8h-184a8 8 0 0 1-8-8zM1500 925.07v96" stroke="#3a414a" fill="none"/><use xlink:href="#af" transform="matrix(1,0,0,1,1410,885.0666271137342) translate(78 23.6)"/><use xlink:href="#ag" transform="matrix(1,0,0,1,1405,927.5666271137342) translate(27.525 17.1)"/><use xlink:href="#z" transform="matrix(1,0,0,1,1505,927.5666271137342) translate(14.549999999999997 17.1)"/><use xlink:href="#y" transform="matrix(1,0,0,1,1405,959.5666271137342) translate(19.049999999999997 17.1)"/><use xlink:href="#z" transform="matrix(1,0,0,1,1505,959.5666271137342) translate(14.549999999999997 17.1)"/><use xlink:href="#ah" transform="matrix(1,0,0,1,1405,991.5666271137342) translate(28 17.1)"/><use xlink:href="#d" transform="matrix(1,0,0,1,1505,991.5666271137342) translate(23.05 17.1)"/><path d="M1210.5 1069.07h97a12 12 0 0 0 12-12v-140a12 12 0 0 1 12-12h48.6M1190.5 1069.07h20m0 10v-20M1399.28 905.07h-20m20-10l-20 10m20 10l-20-10M839.5 536H732a12 12 0 0 0-12 12v413.07a12 12 0 0 0 12 12h107.5M859.5 536h-20m0-10v20M859.5 973.07h-20m0-10v20M1299.5 536h-7.5a12 12 0 0 0-12 12v413.07a12 12 0 0 1-12 12h-57.5M1319.5 536h-20m0-10v20M1190.5 973.07h20m0 10v-20" stroke="#3a414a" fill="none"/><path d="M860 1234.13a8 8 0 0 1 8-8h264a8 8 0 0 1 8 8v152a8 8 0 0 1-8 8H868a8 8 0 0 1-8-8z" fill="#fff"/><path d="M860 1266.13v33h280v-33" fill="#fff"/><path d="M860 1298.13v33h280v-33" fill="#fff"/><path d="M860 1330.13v33h280v-33" fill="#fff"/><path d="M860 1362.13v24a8 8 0 0 0 8 8h264a8 8 0 0 0 8-8v-24" fill="#fff"/><path d="M860 1266.13h280M860 1234.13a8 8 0 0 1 8-8h264a8 8 0 0 1 8 8v152a8 8 0 0 1-8 8H868a8 8 0 0 1-8-8zM920 1266.13v128M1031 1266.13v128" stroke="#3a414a" fill="none"/><use xlink:href="#ai" transform="matrix(1,0,0,1,870,1226.1332542274686) translate(94.05 23.6)"/><use xlink:href="#b" transform="matrix(1,0,0,1,865,1268.6332542274686) translate(13 17.1)"/><use xlink:href="#c" transform="matrix(1,0,0,1,925,1268.6332542274686) translate(39.025 17.1)"/><use xlink:href="#d" transform="matrix(1,0,0,1,1036.0000000000005,1268.6332542274686) translate(27.55 17.1)"/><use xlink:href="#W" transform="matrix(1,0,0,1,865,1300.6332542274686) translate(13.524999999999999 17.1)"/><use xlink:href="#X" transform="matrix(1,0,0,1,925,1300.6332542274686) translate(26.025 17.1)"/><use xlink:href="#d" transform="matrix(1,0,0,1,1036.0000000000005,1300.6332542274686) translate(27.55 17.1)"/><use xlink:href="#aj" transform="matrix(1,0,0,1,925,1332.6332542274686) translate(33.5 17.1)"/><use xlink:href="#v" transform="matrix(1,0,0,1,1036.0000000000005,1332.6332542274686) translate(30.525 17.1)"/><use xlink:href="#ak" transform="matrix(1,0,0,1,925,1364.6332542274686) translate(13.049999999999997 17.1)"/><use xlink:href="#ae" transform="matrix(1,0,0,1,1036.0000000000005,1364.6332542274686) translate(3.549999999999997 17.1)"/><path d="M839.5 162.73H662a12 12 0 0 0-12 12v1127.42a12 12 0 0 0 12 12l178.1-.02M859.5 162.73h-20m0-10v20M859.28 1314.13h-20m20-10l-20 10m20 10l-20-10" stroke="#3a414a" fill="none"/><path d="M839.5 1378.13H782a12 12 0 0 1-12-12v-449.3a12 12 0 0 1 12-12h37.38a.12.12 0 0 1 .12.12.12.12 0 0 0 .12.12h20.47M859.5 1378.13h-20m0-10v20M859.28 905.07h-20m20-10l-20 10m20 10l-20-10" stroke="#3a414a" fill="none"/><path d="M1400 1234.13a8 8 0 0 1 8-8h244a8 8 0 0 1 8 8v152a8 8 0 0 1-8 8h-244a8 8 0 0 1-8-8z" fill="#fff"/><path d="M1400 1266.13v33h260v-33" fill="#fff"/><path d="M1400 1298.13v33h260v-33" fill="#fff"/><path d="M1400 1330.13v33h260v-33" fill="#fff"/><path d="M1400 1362.13v24a8 8 0 0 0 8 8h244a8 8 0 0 0 8-8v-24" fill="#fff"/><path d="M1400 1266.13h260M1400 1234.13a8 8 0 0 1 8-8h244a8 8 0 0 1 8 8v152a8 8 0 0 1-8 8h-244a8 8 0 0 1-8-8zM1460 1266.13v128M1558.1 1266.13v128" stroke="#3a414a" fill="none"/><use xlink:href="#al" transform="matrix(1,0,0,1,1410,1226.1332542274686) translate(88.05 23.6)"/><use xlink:href="#b" transform="matrix(1,0,0,1,1405,1268.6332542274686) translate(13 17.1)"/><use xlink:href="#c" transform="matrix(1,0,0,1,1465,1268.6332542274686) translate(32.525 17.1)"/><use xlink:href="#d" transform="matrix(1,0,0,1,1563.0956835947522,1268.6332542274686) translate(24.05 17.1)"/><use xlink:href="#W" transform="matrix(1,0,0,1,1405,1300.6332542274686) translate(13.524999999999999 17.1)"/><use xlink:href="#X" transform="matrix(1,0,0,1,1465,1300.6332542274686) translate(19.525 17.1)"/><use xlink:href="#d" transform="matrix(1,0,0,1,1563.0956835947522,1300.6332542274686) translate(24.05 17.1)"/><use xlink:href="#Q" transform="matrix(1,0,0,1,1465,1332.6332542274686) translate(22.025 17.1)"/><use xlink:href="#d" transform="matrix(1,0,0,1,1563.0956835947522,1332.6332542274686) translate(24.05 17.1)"/><use xlink:href="#ak" transform="matrix(1,0,0,1,1465,1364.6332542274686) translate(6.549999999999997 17.1)"/><use xlink:href="#ae" transform="matrix(1,0,0,1,1563.0956835947522,1364.6332542274686) translate(0.04999999999999716 17.1)"/><path d="M839.5 162.73H662a12 12 0 0 0-12 12V1428a12 12 0 0 0 12 12h685.5a12 12 0 0 0 12-12v-101.87a12 12 0 0 1 12-12h8.6M859.5 162.73h-20m0-10v20M1399.28 1314.13h-20m20-10l-20 10m20 10l-20-10M1679.9 1378.4h38.1a12 12 0 0 0 12-12V916.82a12 12 0 0 1 12-12h48.1M1660.72 1378.4h20m-20 10l20-10m-20-10l20 10M1809.28 904.82h-20m20-10l-20 10m20 10l-20-10" stroke="#3a414a" fill="none"/><path d="M1810 893.07a8 8 0 0 1 8-8h314a8 8 0 0 1 8 8v184a8 8 0 0 1-8 8h-314a8 8 0 0 1-8-8z" fill="#fff"/><path d="M1810 925.07v33h330v-33" fill="#fff"/><path d="M1810 957.07v33h330v-33" fill="#fff"/><path d="M1810 989.07v33h330v-33" fill="#fff"/><path d="M1810 1021.07v33h330v-33" fill="#fff"/><path d="M1810 1053.07v24a8 8 0 0 0 8 8h314a8 8 0 0 0 8-8v-24" fill="#fff"/><path d="M1810 925.07h330M1810 893.07a8 8 0 0 1 8-8h314a8 8 0 0 1 8 8v184a8 8 0 0 1-8 8h-314a8 8 0 0 1-8-8zM2014.18 925.07v160" stroke="#3a414a" fill="none"/><use xlink:href="#am" transform="matrix(1,0,0,1,1820,885.0666271137342) translate(89.1 23.6)"/><use xlink:href="#Z" transform="matrix(1,0,0,1,1815,927.5666271137342) translate(60.075 17.1)"/><use xlink:href="#i" transform="matrix(1,0,0,1,2019.1797655926234,927.5666271137342) translate(26.025 17.1)"/><use xlink:href="#an" transform="matrix(1,0,0,1,1815,959.5666271137342) translate(56.55 17.1)"/><use xlink:href="#d" transform="matrix(1,0,0,1,2019.1797655926234,959.5666271137342) translate(36.05 17.1)"/><use xlink:href="#ab" transform="matrix(1,0,0,1,1815,991.5666271137342) translate(9.949999999999989 17.1)"/><use xlink:href="#z" transform="matrix(1,0,0,1,2019.1797655926234,991.5666271137342) translate(27.549999999999997 17.1)"/><use xlink:href="#ac" transform="matrix(1,0,0,1,1815,1023.5666271137342) translate(80 17.1)"/><use xlink:href="#d" transform="matrix(1,0,0,1,2019.1797655926234,1023.5666271137342) translate(36.05 17.1)"/><use xlink:href="#ad" transform="matrix(1,0,0,1,1815,1055.5666271137343) translate(81 17.1)"/><use xlink:href="#ae" transform="matrix(1,0,0,1,2019.1797655926234,1055.5666271137343) translate(12.049999999999997 17.1)"/><path d="M839.5 535.8H732a12 12 0 0 0-12 12V818a12 12 0 0 0 12 12h1025.5a12 12 0 0 1 12 12v119.03a12 12 0 0 0 12 12h8M859.5 535.8h-20m0-10v20M1809.5 973.03h-20m0-10v20" stroke="#3a414a" fill="none"/><path d="M1299.5 535.83h-8a12 12 0 0 0-12 12v238.7a12 12 0 0 0 12 12h877a12 12 0 0 1 12 12v150.5a12 12 0 0 1-12 12h-8M1319.5 535.83h-20m0-10v20M2140.5 973.03h20m0 10v-20" stroke="#3a414a" fill="none"/><defs><path fill="#3a414a" d="M84 4C-5 8 30-112 23-190h32v120c0 31 7 50 39 49 72-2 45-101 50-169h31l1 190h-30c-1-10 1-25-2-33-11 22-28 36-60 37" id="ao"/><path fill="#3a414a" d="M135-143c-3-34-86-38-87 0 15 53 115 12 119 90S17 21 10-45l28-5c4 36 97 45 98 0-10-56-113-15-118-90-4-57 82-63 122-42 12 7 21 19 24 35" id="ap"/><path fill="#3a414a" d="M100-194c63 0 86 42 84 106H49c0 40 14 67 53 68 26 1 43-12 49-29l28 8c-11 28-37 45-77 45C44 4 14-33 15-96c1-61 26-98 85-98zm52 81c6-60-76-77-97-28-3 7-6 17-6 28h103" id="aq"/><path fill="#3a414a" d="M114-163C36-179 61-72 57 0H25l-1-190h30c1 12-1 29 2 39 6-27 23-49 58-41v29" id="ar"/><g id="a"><use transform="matrix(0.05,0,0,0.05,0,0)" xlink:href="#ao"/><use transform="matrix(0.05,0,0,0.05,10,0)" xlink:href="#ap"/><use transform="matrix(0.05,0,0,0.05,19,0)" xlink:href="#aq"/><use transform="matrix(0.05,0,0,0.05,29,0)" xlink:href="#ar"/><use transform="matrix(0.05,0,0,0.05,34.95,0)" xlink:href="#ap"/></g><path fill="#3a414a" d="M30-248c87 1 191-15 191 75 0 78-77 80-158 76V0H30v-248zm33 125c57 0 124 11 124-50 0-59-68-47-124-48v98" id="as"/><path fill="#3a414a" d="M194 0L95-120 63-95V0H30v-248h33v124l119-124h40L117-140 236 0h-42" id="at"/><g id="b"><use transform="matrix(0.05,0,0,0.05,0,0)" xlink:href="#as"/><use transform="matrix(0.05,0,0,0.05,12,0)" xlink:href="#at"/></g><path fill="#3a414a" d="M-5 72V49h209v23H-5" id="au"/><path fill="#3a414a" d="M24-231v-30h32v30H24zM24 0v-190h32V0H24" id="av"/><path fill="#3a414a" d="M85-194c31 0 48 13 60 33l-1-100h32l1 261h-30c-2-10 0-23-3-31C134-8 116 4 85 4 32 4 16-35 15-94c0-66 23-100 70-100zm9 24c-40 0-46 34-46 75 0 40 6 74 45 74 42 0 51-32 51-76 0-42-9-74-50-73" id="aw"/><g id="c"><use transform="matrix(0.05,0,0,0.05,0,0)" xlink:href="#au"/><use transform="matrix(0.05,0,0,0.05,10,0)" xlink:href="#av"/><use transform="matrix(0.05,0,0,0.05,13.949999999999998,0)" xlink:href="#aw"/></g><path fill="#3a414a" d="M59-47c-2 24 18 29 38 22v24C64 9 27 4 27-40v-127H5v-23h24l9-43h21v43h35v23H59v120" id="ax"/><path fill="#3a414a" d="M117-194c89-4 53 116 60 194h-32v-121c0-31-8-49-39-48C34-167 62-67 57 0H25l-1-190h30c1 10-1 24 2 32 11-22 29-35 61-36" id="ay"/><path fill="#3a414a" d="M177-190C167-65 218 103 67 71c-23-6-38-20-44-43l32-5c15 47 100 32 89-28v-30C133-14 115 1 83 1 29 1 15-40 15-95c0-56 16-97 71-98 29-1 48 16 59 35 1-10 0-23 2-32h30zM94-22c36 0 50-32 50-73 0-42-14-75-50-75-39 0-46 34-46 75s6 73 46 73" id="az"/><g id="d"><use transform="matrix(0.05,0,0,0.05,0,0)" xlink:href="#ap"/><use transform="matrix(0.05,0,0,0.05,9,0)" xlink:href="#ax"/><use transform="matrix(0.05,0,0,0.05,14,0)" xlink:href="#ar"/><use transform="matrix(0.05,0,0,0.05,19.95,0)" xlink:href="#av"/><use transform="matrix(0.05,0,0,0.05,23.9,0)" xlink:href="#ay"/><use transform="matrix(0.05,0,0,0.05,33.9,0)" xlink:href="#az"/></g><path fill="#3a414a" d="M232-93c-1 65-40 97-104 97C67 4 28-28 28-90v-158h33c8 89-33 224 67 224 102 0 64-133 71-224h33v155" id="aA"/><g id="e"><use transform="matrix(0.05,0,0,0.05,0,0)" xlink:href="#aA"/><use transform="matrix(0.05,0,0,0.05,12.950000000000001,0)" xlink:href="#at"/></g><path fill="#3a414a" d="M210-169c-67 3-38 105-44 169h-31v-121c0-29-5-50-35-48C34-165 62-65 56 0H25l-1-190h30c1 10-1 24 2 32 10-44 99-50 107 0 11-21 27-35 58-36 85-2 47 119 55 194h-31v-121c0-29-5-49-35-48" id="aB"/><path fill="#3a414a" d="M141-36C126-15 110 5 73 4 37 3 15-17 15-53c-1-64 63-63 125-63 3-35-9-54-41-54-24 1-41 7-42 31l-33-3c5-37 33-52 76-52 45 0 72 20 72 64v82c-1 20 7 32 28 27v20c-31 9-61-2-59-35zM48-53c0 20 12 33 32 33 41-3 63-29 60-74-43 2-92-5-92 41" id="aC"/><path fill="#3a414a" d="M24 0v-261h32V0H24" id="aD"/><g id="f"><use transform="matrix(0.05,0,0,0.05,0,0)" xlink:href="#aq"/><use transform="matrix(0.05,0,0,0.05,10,0)" xlink:href="#aB"/><use transform="matrix(0.05,0,0,0.05,24.950000000000003,0)" xlink:href="#aC"/><use transform="matrix(0.05,0,0,0.05,34.95,0)" xlink:href="#av"/><use transform="matrix(0.05,0,0,0.05,38.900000000000006,0)" xlink:href="#aD"/></g><path fill="#3a414a" d="M115-194c55 1 70 41 70 98S169 2 115 4C84 4 66-9 55-30l1 105H24l-1-265h31l2 30c10-21 28-34 59-34zm-8 174c40 0 45-34 45-75s-6-73-45-74c-42 0-51 32-51 76 0 43 10 73 51 73" id="aE"/><path fill="#3a414a" d="M206 0h-36l-40-164L89 0H53L-1-190h32L70-26l43-164h34l41 164 42-164h31" id="aF"/><path fill="#3a414a" d="M100-194c62-1 85 37 85 99 1 63-27 99-86 99S16-35 15-95c0-66 28-99 85-99zM99-20c44 1 53-31 53-75 0-43-8-75-51-75s-53 32-53 75 10 74 51 75" id="aG"/><path fill="#3a414a" d="M197 0v-115H63V0H30v-248h33v105h134v-105h34V0h-34" id="aH"/><path fill="#3a414a" d="M106-169C34-169 62-67 57 0H25v-261h32l-1 103c12-21 28-36 61-36 89 0 53 116 60 194h-32v-121c2-32-8-49-39-48" id="aI"/><g id="g"><use transform="matrix(0.05,0,0,0.05,0,0)" xlink:href="#aE"/><use transform="matrix(0.05,0,0,0.05,10,0)" xlink:href="#aC"/><use transform="matrix(0.05,0,0,0.05,20,0)" xlink:href="#ap"/><use transform="matrix(0.05,0,0,0.05,29,0)" xlink:href="#ap"/><use transform="matrix(0.05,0,0,0.05,38,0)" xlink:href="#aF"/><use transform="matrix(0.05,0,0,0.05,50.95,0)" xlink:href="#aG"/><use transform="matrix(0.05,0,0,0.05,60.95,0)" xlink:href="#ar"/><use transform="matrix(0.05,0,0,0.05,66.9,0)" xlink:href="#aw"/><use transform="matrix(0.05,0,0,0.05,76.9,0)" xlink:href="#aH"/><use transform="matrix(0.05,0,0,0.05,89.85000000000001,0)" xlink:href="#aC"/><use transform="matrix(0.05,0,0,0.05,99.85000000000001,0)" xlink:href="#ap"/><use transform="matrix(0.05,0,0,0.05,108.85000000000001,0)" xlink:href="#aI"/></g><path fill="#3a414a" d="M205 0l-28-72H64L36 0H1l101-248h38L239 0h-34zm-38-99l-47-123c-12 45-31 82-46 123h93" id="aJ"/><path fill="#3a414a" d="M96-169c-40 0-48 33-48 73s9 75 48 75c24 0 41-14 43-38l32 2c-6 37-31 61-74 61-59 0-76-41-82-99-10-93 101-131 147-64 4 7 5 14 7 22l-32 3c-4-21-16-35-41-35" id="aK"/><path fill="#3a414a" d="M108 0H70L1-190h34L89-25l56-165h34" id="aL"/><g id="h"><use transform="matrix(0.05,0,0,0.05,0,0)" xlink:href="#av"/><use transform="matrix(0.05,0,0,0.05,3.95,0)" xlink:href="#ap"/><use transform="matrix(0.05,0,0,0.05,12.949999999999998,0)" xlink:href="#aJ"/><use transform="matrix(0.05,0,0,0.05,24.95,0)" xlink:href="#aK"/><use transform="matrix(0.05,0,0,0.05,33.95,0)" xlink:href="#ax"/><use transform="matrix(0.05,0,0,0.05,38.95,0)" xlink:href="#av"/><use transform="matrix(0.05,0,0,0.05,42.900000000000006,0)" xlink:href="#aL"/><use transform="matrix(0.05,0,0,0.05,51.900000000000006,0)" xlink:href="#aq"/></g><path fill="#3a414a" d="M115-194c53 0 69 39 70 98 0 66-23 100-70 100C84 3 66-7 56-30L54 0H23l1-261h32v101c10-23 28-34 59-34zm-8 174c40 0 45-34 45-75 0-40-5-75-45-74-42 0-51 32-51 76 0 43 10 73 51 73" id="aM"/><g id="i"><use transform="matrix(0.05,0,0,0.05,0,0)" xlink:href="#aM"/><use transform="matrix(0.05,0,0,0.05,10,0)" xlink:href="#aG"/><use transform="matrix(0.05,0,0,0.05,20,0)" xlink:href="#aG"/><use transform="matrix(0.05,0,0,0.05,30,0)" xlink:href="#aD"/><use transform="matrix(0.05,0,0,0.05,33.95,0)" xlink:href="#aq"/><use transform="matrix(0.05,0,0,0.05,43.95,0)" xlink:href="#aC"/><use transform="matrix(0.05,0,0,0.05,53.95,0)" xlink:href="#ay"/></g><g id="j"><use transform="matrix(0.05,0,0,0.05,0,0)" xlink:href="#ar"/><use transform="matrix(0.05,0,0,0.05,5.95,0)" xlink:href="#aG"/><use transform="matrix(0.05,0,0,0.05,15.949999999999998,0)" xlink:href="#aD"/><use transform="matrix(0.05,0,0,0.05,19.9,0)" xlink:href="#aq"/><use transform="matrix(0.05,0,0,0.05,29.899999999999995,0)" xlink:href="#ap"/></g><path fill="#3a414a" d="M26 75v-336h71v23H56V52h41v23H26" id="aN"/><path fill="#3a414a" d="M3 75V52h41v-290H3v-23h71V75H3" id="aO"/><g id="k"><use transform="matrix(0.05,0,0,0.05,0,0)" xlink:href="#ap"/><use transform="matrix(0.05,0,0,0.05,9,0)" xlink:href="#ax"/><use transform="matrix(0.05,0,0,0.05,14,0)" xlink:href="#ar"/><use transform="matrix(0.05,0,0,0.05,19.95,0)" xlink:href="#av"/><use transform="matrix(0.05,0,0,0.05,23.9,0)" xlink:href="#ay"/><use transform="matrix(0.05,0,0,0.05,33.9,0)" xlink:href="#az"/><use transform="matrix(0.05,0,0,0.05,43.9,0)" xlink:href="#aN"/><use transform="matrix(0.05,0,0,0.05,48.9,0)" xlink:href="#aO"/></g><path fill="#3a414a" d="M101-234c-31-9-42 10-38 44h38v23H63V0H32v-167H5v-23h27c-7-52 17-82 69-68v24" id="aP"/><g id="l"><use transform="matrix(0.05,0,0,0.05,0,0)" xlink:href="#aE"/><use transform="matrix(0.05,0,0,0.05,10,0)" xlink:href="#ar"/><use transform="matrix(0.05,0,0,0.05,15.949999999999998,0)" xlink:href="#aG"/><use transform="matrix(0.05,0,0,0.05,25.950000000000003,0)" xlink:href="#aP"/><use transform="matrix(0.05,0,0,0.05,30.950000000000003,0)" xlink:href="#av"/><use transform="matrix(0.05,0,0,0.05,34.9,0)" xlink:href="#aD"/><use transform="matrix(0.05,0,0,0.05,38.85,0)" xlink:href="#aq"/></g><path fill="#3a414a" d="M30-248c118-7 216 8 213 122C240-48 200 0 122 0H30v-248zM63-27c89 8 146-16 146-99s-60-101-146-95v194" id="aQ"/><g id="m"><use transform="matrix(0.05,0,0,0.05,0,0)" xlink:href="#aQ"/><use transform="matrix(0.05,0,0,0.05,12.950000000000001,0)" xlink:href="#aG"/><use transform="matrix(0.05,0,0,0.05,22.950000000000003,0)" xlink:href="#aK"/><use transform="matrix(0.05,0,0,0.05,31.950000000000003,0)" xlink:href="#ao"/><use transform="matrix(0.05,0,0,0.05,41.95,0)" xlink:href="#aB"/><use transform="matrix(0.05,0,0,0.05,56.900000000000006,0)" xlink:href="#aq"/><use transform="matrix(0.05,0,0,0.05,66.9,0)" xlink:href="#ay"/><use transform="matrix(0.05,0,0,0.05,76.9,0)" xlink:href="#ax"/></g><path fill="#3a414a" d="M190 0L58-211 59 0H30v-248h39L202-35l-2-213h31V0h-41" id="aR"/><g id="n"><use transform="matrix(0.05,0,0,0.05,0,0)" xlink:href="#aP"/><use transform="matrix(0.05,0,0,0.05,5,0)" xlink:href="#av"/><use transform="matrix(0.05,0,0,0.05,8.95,0)" xlink:href="#ar"/><use transform="matrix(0.05,0,0,0.05,14.899999999999999,0)" xlink:href="#ap"/><use transform="matrix(0.05,0,0,0.05,23.9,0)" xlink:href="#ax"/><use transform="matrix(0.05,0,0,0.05,28.899999999999995,0)" xlink:href="#aR"/><use transform="matrix(0.05,0,0,0.05,41.85,0)" xlink:href="#aC"/><use transform="matrix(0.05,0,0,0.05,51.85,0)" xlink:href="#aB"/><use transform="matrix(0.05,0,0,0.05,66.8,0)" xlink:href="#aq"/></g><g id="o"><use transform="matrix(0.05,0,0,0.05,0,0)" xlink:href="#aD"/><use transform="matrix(0.05,0,0,0.05,3.95,0)" xlink:href="#aC"/><use transform="matrix(0.05,0,0,0.05,13.949999999999998,0)" xlink:href="#ap"/><use transform="matrix(0.05,0,0,0.05,22.95,0)" xlink:href="#ax"/><use transform="matrix(0.05,0,0,0.05,27.950000000000003,0)" xlink:href="#aR"/><use transform="matrix(0.05,0,0,0.05,40.9,0)" xlink:href="#aC"/><use transform="matrix(0.05,0,0,0.05,50.9,0)" xlink:href="#aB"/><use transform="matrix(0.05,0,0,0.05,65.85,0)" xlink:href="#aq"/></g><g id="p"><use transform="matrix(0.05,0,0,0.05,0,0)" xlink:href="#aE"/><use transform="matrix(0.05,0,0,0.05,10,0)" xlink:href="#av"/><use transform="matrix(0.05,0,0,0.05,13.949999999999998,0)" xlink:href="#aK"/><use transform="matrix(0.05,0,0,0.05,22.95,0)" xlink:href="#ax"/><use transform="matrix(0.05,0,0,0.05,27.950000000000003,0)" xlink:href="#ao"/><use transform="matrix(0.05,0,0,0.05,37.95,0)" xlink:href="#ar"/><use transform="matrix(0.05,0,0,0.05,43.900000000000006,0)" xlink:href="#aq"/></g><g id="q"><use transform="matrix(0.05,0,0,0.05,0,0)" xlink:href="#aM"/><use transform="matrix(0.05,0,0,0.05,10,0)" xlink:href="#av"/><use transform="matrix(0.05,0,0,0.05,13.949999999999998,0)" xlink:href="#aG"/></g><path fill="#3a414a" d="M143 4C61 4 22-44 18-125c-5-107 100-154 193-111 17 8 29 25 37 43l-32 9c-13-25-37-40-76-40-61 0-88 39-88 99 0 61 29 100 91 101 35 0 62-11 79-27v-45h-74v-28h105v86C228-13 192 4 143 4" id="aS"/><g id="r"><use transform="matrix(0.05,0,0,0.05,0,0)" xlink:href="#aP"/><use transform="matrix(0.05,0,0,0.05,5,0)" xlink:href="#av"/><use transform="matrix(0.05,0,0,0.05,8.95,0)" xlink:href="#ax"/><use transform="matrix(0.05,0,0,0.05,13.949999999999998,0)" xlink:href="#ay"/><use transform="matrix(0.05,0,0,0.05,23.95,0)" xlink:href="#aq"/><use transform="matrix(0.05,0,0,0.05,33.95,0)" xlink:href="#ap"/><use transform="matrix(0.05,0,0,0.05,42.95,0)" xlink:href="#ap"/><use transform="matrix(0.05,0,0,0.05,51.95,0)" xlink:href="#aS"/><use transform="matrix(0.05,0,0,0.05,65.95,0)" xlink:href="#aG"/><use transform="matrix(0.05,0,0,0.05,75.95,0)" xlink:href="#aC"/><use transform="matrix(0.05,0,0,0.05,85.95,0)" xlink:href="#aD"/><use transform="matrix(0.05,0,0,0.05,89.9,0)" xlink:href="#ap"/></g><g id="s"><use transform="matrix(0.05,0,0,0.05,0,0)" xlink:href="#av"/><use transform="matrix(0.05,0,0,0.05,3.95,0)" xlink:href="#ap"/><use transform="matrix(0.05,0,0,0.05,12.949999999999998,0)" xlink:href="#as"/><use transform="matrix(0.05,0,0,0.05,24.95,0)" xlink:href="#ao"/><use transform="matrix(0.05,0,0,0.05,34.95,0)" xlink:href="#aM"/><use transform="matrix(0.05,0,0,0.05,44.95,0)" xlink:href="#aD"/><use transform="matrix(0.05,0,0,0.05,48.900000000000006,0)" xlink:href="#av"/><use transform="matrix(0.05,0,0,0.05,52.85,0)" xlink:href="#aK"/></g><path fill="#3a414a" d="M141 0L90-78 38 0H4l68-98-65-92h35l48 74 47-74h35l-64 92 68 98h-35" id="aT"/><g id="t"><use transform="matrix(0.05,0,0,0.05,0,0)" xlink:href="#ap"/><use transform="matrix(0.05,0,0,0.05,9,0)" xlink:href="#aq"/><use transform="matrix(0.05,0,0,0.05,19,0)" xlink:href="#aT"/></g><g id="u"><use transform="matrix(0.05,0,0,0.05,0,0)" xlink:href="#aM"/><use transform="matrix(0.05,0,0,0.05,10,0)" xlink:href="#av"/><use transform="matrix(0.05,0,0,0.05,13.949999999999998,0)" xlink:href="#ar"/><use transform="matrix(0.05,0,0,0.05,19.9,0)" xlink:href="#ax"/><use transform="matrix(0.05,0,0,0.05,24.9,0)" xlink:href="#aI"/><use transform="matrix(0.05,0,0,0.05,34.9,0)" xlink:href="#aQ"/><use transform="matrix(0.05,0,0,0.05,47.85,0)" xlink:href="#aC"/><use transform="matrix(0.05,0,0,0.05,57.85,0)" xlink:href="#ax"/><use transform="matrix(0.05,0,0,0.05,62.85,0)" xlink:href="#aq"/></g><g id="v"><use transform="matrix(0.05,0,0,0.05,0,0)" xlink:href="#aQ"/><use transform="matrix(0.05,0,0,0.05,12.950000000000001,0)" xlink:href="#aC"/><use transform="matrix(0.05,0,0,0.05,22.950000000000003,0)" xlink:href="#ax"/><use transform="matrix(0.05,0,0,0.05,27.950000000000003,0)" xlink:href="#aq"/></g><path fill="#3a414a" d="M179-190L93 31C79 59 56 82 12 73V49c39 6 53-20 64-50L1-190h34L92-34l54-156h33" id="aU"/><path fill="#3a414a" d="M240 0l2-218c-23 76-54 145-80 218h-23L58-218 59 0H30v-248h44l77 211c21-75 51-140 76-211h43V0h-30" id="aV"/><g id="w"><use transform="matrix(0.05,0,0,0.05,0,0)" xlink:href="#aM"/><use transform="matrix(0.05,0,0,0.05,10,0)" xlink:href="#aG"/><use transform="matrix(0.05,0,0,0.05,20,0)" xlink:href="#aw"/><use transform="matrix(0.05,0,0,0.05,30,0)" xlink:href="#aU"/><use transform="matrix(0.05,0,0,0.05,39,0)" xlink:href="#aV"/><use transform="matrix(0.05,0,0,0.05,53.95,0)" xlink:href="#aq"/><use transform="matrix(0.05,0,0,0.05,63.95,0)" xlink:href="#aC"/><use transform="matrix(0.05,0,0,0.05,73.95,0)" xlink:href="#ap"/><use transform="matrix(0.05,0,0,0.05,82.95,0)" xlink:href="#ao"/><use transform="matrix(0.05,0,0,0.05,92.95,0)" xlink:href="#ar"/><use transform="matrix(0.05,0,0,0.05,98.9,0)" xlink:href="#aq"/><use transform="matrix(0.05,0,0,0.05,108.9,0)" xlink:href="#aB"/><use transform="matrix(0.05,0,0,0.05,123.85000000000001,0)" xlink:href="#aq"/><use transform="matrix(0.05,0,0,0.05,133.85000000000002,0)" xlink:href="#ay"/><use transform="matrix(0.05,0,0,0.05,143.85000000000002,0)" xlink:href="#ax"/><use transform="matrix(0.05,0,0,0.05,148.85000000000002,0)" xlink:href="#ap"/></g><g id="x"><use transform="matrix(0.05,0,0,0.05,0,0)" xlink:href="#aM"/><use transform="matrix(0.05,0,0,0.05,10,0)" xlink:href="#aG"/><use transform="matrix(0.05,0,0,0.05,20,0)" xlink:href="#aw"/><use transform="matrix(0.05,0,0,0.05,30,0)" xlink:href="#aU"/><use transform="matrix(0.05,0,0,0.05,39,0)" xlink:href="#au"/><use transform="matrix(0.05,0,0,0.05,49,0)" xlink:href="#aB"/><use transform="matrix(0.05,0,0,0.05,63.95,0)" xlink:href="#aq"/><use transform="matrix(0.05,0,0,0.05,73.95,0)" xlink:href="#aC"/><use transform="matrix(0.05,0,0,0.05,83.95,0)" xlink:href="#ap"/><use transform="matrix(0.05,0,0,0.05,92.95,0)" xlink:href="#ao"/><use transform="matrix(0.05,0,0,0.05,102.95,0)" xlink:href="#ar"/><use transform="matrix(0.05,0,0,0.05,108.9,0)" xlink:href="#aq"/><use transform="matrix(0.05,0,0,0.05,118.9,0)" xlink:href="#aB"/><use transform="matrix(0.05,0,0,0.05,133.85,0)" xlink:href="#aq"/><use transform="matrix(0.05,0,0,0.05,143.85,0)" xlink:href="#ay"/><use transform="matrix(0.05,0,0,0.05,153.85,0)" xlink:href="#ax"/></g><g id="y"><use transform="matrix(0.05,0,0,0.05,0,0)" xlink:href="#aF"/><use transform="matrix(0.05,0,0,0.05,12.950000000000001,0)" xlink:href="#aq"/><use transform="matrix(0.05,0,0,0.05,22.950000000000003,0)" xlink:href="#av"/><use transform="matrix(0.05,0,0,0.05,26.900000000000002,0)" xlink:href="#az"/><use transform="matrix(0.05,0,0,0.05,36.900000000000006,0)" xlink:href="#aI"/><use transform="matrix(0.05,0,0,0.05,46.900000000000006,0)" xlink:href="#ax"/></g><g id="z"><use transform="matrix(0.05,0,0,0.05,0,0)" xlink:href="#ay"/><use transform="matrix(0.05,0,0,0.05,10,0)" xlink:href="#ao"/><use transform="matrix(0.05,0,0,0.05,20,0)" xlink:href="#aB"/><use transform="matrix(0.05,0,0,0.05,34.95,0)" xlink:href="#aM"/><use transform="matrix(0.05,0,0,0.05,44.95,0)" xlink:href="#aq"/><use transform="matrix(0.05,0,0,0.05,54.95,0)" xlink:href="#ar"/></g><g id="A"><use transform="matrix(0.05,0,0,0.05,0,0)" xlink:href="#aI"/><use transform="matrix(0.05,0,0,0.05,10,0)" xlink:href="#aq"/><use transform="matrix(0.05,0,0,0.05,20,0)" xlink:href="#av"/><use transform="matrix(0.05,0,0,0.05,23.95,0)" xlink:href="#az"/><use transform="matrix(0.05,0,0,0.05,33.95,0)" xlink:href="#aI"/><use transform="matrix(0.05,0,0,0.05,43.95,0)" xlink:href="#ax"/></g><g id="B"><use transform="matrix(0.05,0,0,0.05,0,0)" xlink:href="#aF"/><use transform="matrix(0.05,0,0,0.05,12.950000000000001,0)" xlink:href="#aC"/><use transform="matrix(0.05,0,0,0.05,22.950000000000003,0)" xlink:href="#av"/><use transform="matrix(0.05,0,0,0.05,26.900000000000002,0)" xlink:href="#ap"/><use transform="matrix(0.05,0,0,0.05,35.900000000000006,0)" xlink:href="#ax"/></g><path fill="#3a414a" d="M63-220v92h138v28H63V0H30v-248h175v28H63" id="aW"/><g id="C"><use transform="matrix(0.05,0,0,0.05,0,0)" xlink:href="#aM"/><use transform="matrix(0.05,0,0,0.05,10,0)" xlink:href="#aG"/><use transform="matrix(0.05,0,0,0.05,20,0)" xlink:href="#aw"/><use transform="matrix(0.05,0,0,0.05,30,0)" xlink:href="#aU"/><use transform="matrix(0.05,0,0,0.05,39,0)" xlink:href="#aW"/><use transform="matrix(0.05,0,0,0.05,49.95,0)" xlink:href="#aC"/><use transform="matrix(0.05,0,0,0.05,59.95,0)" xlink:href="#ax"/></g><path fill="#3a414a" d="M143 0L79-87 56-68V0H24v-261h32v163l83-92h37l-77 82L181 0h-38" id="aX"/><g id="D"><use transform="matrix(0.05,0,0,0.05,0,0)" xlink:href="#ay"/><use transform="matrix(0.05,0,0,0.05,10,0)" xlink:href="#aq"/><use transform="matrix(0.05,0,0,0.05,20,0)" xlink:href="#aK"/><use transform="matrix(0.05,0,0,0.05,29,0)" xlink:href="#aX"/></g><g id="E"><use transform="matrix(0.05,0,0,0.05,0,0)" xlink:href="#ap"/><use transform="matrix(0.05,0,0,0.05,9,0)" xlink:href="#aI"/><use transform="matrix(0.05,0,0,0.05,19,0)" xlink:href="#aG"/><use transform="matrix(0.05,0,0,0.05,29,0)" xlink:href="#ao"/><use transform="matrix(0.05,0,0,0.05,39,0)" xlink:href="#aD"/><use transform="matrix(0.05,0,0,0.05,42.95,0)" xlink:href="#aw"/><use transform="matrix(0.05,0,0,0.05,52.95,0)" xlink:href="#aq"/><use transform="matrix(0.05,0,0,0.05,62.95,0)" xlink:href="#ar"/></g><g id="F"><use transform="matrix(0.05,0,0,0.05,0,0)" xlink:href="#aK"/><use transform="matrix(0.05,0,0,0.05,9,0)" xlink:href="#aI"/><use transform="matrix(0.05,0,0,0.05,19,0)" xlink:href="#aq"/><use transform="matrix(0.05,0,0,0.05,29,0)" xlink:href="#ap"/><use transform="matrix(0.05,0,0,0.05,38,0)" xlink:href="#ax"/></g><path fill="#3a414a" d="M160-131c35 5 61 23 61 61C221 17 115-2 30 0v-248c76 3 177-17 177 60 0 33-19 50-47 57zm-97-11c50-1 110 9 110-42 0-47-63-36-110-37v79zm0 115c55-2 124 14 124-45 0-56-70-42-124-44v89" id="aY"/><g id="G"><use transform="matrix(0.05,0,0,0.05,0,0)" xlink:href="#aD"/><use transform="matrix(0.05,0,0,0.05,3.95,0)" xlink:href="#aq"/><use transform="matrix(0.05,0,0,0.05,13.949999999999998,0)" xlink:href="#aP"/><use transform="matrix(0.05,0,0,0.05,18.95,0)" xlink:href="#ax"/><use transform="matrix(0.05,0,0,0.05,23.95,0)" xlink:href="#aY"/><use transform="matrix(0.05,0,0,0.05,35.95,0)" xlink:href="#av"/><use transform="matrix(0.05,0,0,0.05,39.900000000000006,0)" xlink:href="#aK"/><use transform="matrix(0.05,0,0,0.05,48.900000000000006,0)" xlink:href="#aq"/><use transform="matrix(0.05,0,0,0.05,58.900000000000006,0)" xlink:href="#aE"/></g><g id="H"><use transform="matrix(0.05,0,0,0.05,0,0)" xlink:href="#ar"/><use transform="matrix(0.05,0,0,0.05,5.95,0)" xlink:href="#av"/><use transform="matrix(0.05,0,0,0.05,9.9,0)" xlink:href="#az"/><use transform="matrix(0.05,0,0,0.05,19.9,0)" xlink:href="#aI"/><use transform="matrix(0.05,0,0,0.05,29.899999999999995,0)" xlink:href="#ax"/><use transform="matrix(0.05,0,0,0.05,34.9,0)" xlink:href="#aY"/><use transform="matrix(0.05,0,0,0.05,46.9,0)" xlink:href="#av"/><use transform="matrix(0.05,0,0,0.05,50.85,0)" xlink:href="#aK"/><use transform="matrix(0.05,0,0,0.05,59.85,0)" xlink:href="#aq"/><use transform="matrix(0.05,0,0,0.05,69.85,0)" xlink:href="#aE"/></g><g id="I"><use transform="matrix(0.05,0,0,0.05,0,0)" xlink:href="#aD"/><use transform="matrix(0.05,0,0,0.05,3.95,0)" xlink:href="#aq"/><use transform="matrix(0.05,0,0,0.05,13.949999999999998,0)" xlink:href="#aP"/><use transform="matrix(0.05,0,0,0.05,18.95,0)" xlink:href="#ax"/><use transform="matrix(0.05,0,0,0.05,23.95,0)" xlink:href="#aW"/><use transform="matrix(0.05,0,0,0.05,34.9,0)" xlink:href="#aG"/><use transform="matrix(0.05,0,0,0.05,44.9,0)" xlink:href="#ar"/><use transform="matrix(0.05,0,0,0.05,50.85,0)" xlink:href="#aq"/><use transform="matrix(0.05,0,0,0.05,60.85,0)" xlink:href="#aC"/><use transform="matrix(0.05,0,0,0.05,70.85,0)" xlink:href="#ar"/><use transform="matrix(0.05,0,0,0.05,76.8,0)" xlink:href="#aB"/></g><g id="J"><use transform="matrix(0.05,0,0,0.05,0,0)" xlink:href="#ar"/><use transform="matrix(0.05,0,0,0.05,5.95,0)" xlink:href="#av"/><use transform="matrix(0.05,0,0,0.05,9.9,0)" xlink:href="#az"/><use transform="matrix(0.05,0,0,0.05,19.9,0)" xlink:href="#aI"/><use transform="matrix(0.05,0,0,0.05,29.899999999999995,0)" xlink:href="#ax"/><use transform="matrix(0.05,0,0,0.05,34.9,0)" xlink:href="#aW"/><use transform="matrix(0.05,0,0,0.05,45.85,0)" xlink:href="#aG"/><use transform="matrix(0.05,0,0,0.05,55.85,0)" xlink:href="#ar"/><use transform="matrix(0.05,0,0,0.05,61.800000000000004,0)" xlink:href="#aq"/><use transform="matrix(0.05,0,0,0.05,71.80000000000001,0)" xlink:href="#aC"/><use transform="matrix(0.05,0,0,0.05,81.80000000000001,0)" xlink:href="#ar"/><use transform="matrix(0.05,0,0,0.05,87.75000000000001,0)" xlink:href="#aB"/></g><g id="K"><use transform="matrix(0.05,0,0,0.05,0,0)" xlink:href="#aI"/><use transform="matrix(0.05,0,0,0.05,10,0)" xlink:href="#av"/><use transform="matrix(0.05,0,0,0.05,13.949999999999998,0)" xlink:href="#aE"/><use transform="matrix(0.05,0,0,0.05,23.95,0)" xlink:href="#ap"/></g><path fill="#3a414a" d="M127-220V0H93v-220H8v-28h204v28h-85" id="aZ"/><g id="L"><use transform="matrix(0.05,0,0,0.05,0,0)" xlink:href="#aD"/><use transform="matrix(0.05,0,0,0.05,3.95,0)" xlink:href="#aq"/><use transform="matrix(0.05,0,0,0.05,13.949999999999998,0)" xlink:href="#aP"/><use transform="matrix(0.05,0,0,0.05,18.95,0)" xlink:href="#ax"/><use transform="matrix(0.05,0,0,0.05,23.95,0)" xlink:href="#aZ"/><use transform="matrix(0.05,0,0,0.05,34.9,0)" xlink:href="#aI"/><use transform="matrix(0.05,0,0,0.05,44.9,0)" xlink:href="#av"/><use transform="matrix(0.05,0,0,0.05,48.85,0)" xlink:href="#az"/><use transform="matrix(0.05,0,0,0.05,58.85,0)" xlink:href="#aI"/></g><g id="M"><use transform="matrix(0.05,0,0,0.05,0,0)" xlink:href="#ar"/><use transform="matrix(0.05,0,0,0.05,5.95,0)" xlink:href="#av"/><use transform="matrix(0.05,0,0,0.05,9.9,0)" xlink:href="#az"/><use transform="matrix(0.05,0,0,0.05,19.9,0)" xlink:href="#aI"/><use transform="matrix(0.05,0,0,0.05,29.899999999999995,0)" xlink:href="#ax"/><use transform="matrix(0.05,0,0,0.05,34.9,0)" xlink:href="#aZ"/><use transform="matrix(0.05,0,0,0.05,45.85,0)" xlink:href="#aI"/><use transform="matrix(0.05,0,0,0.05,55.85,0)" xlink:href="#av"/><use transform="matrix(0.05,0,0,0.05,59.800000000000004,0)" xlink:href="#az"/><use transform="matrix(0.05,0,0,0.05,69.80000000000001,0)" xlink:href="#aI"/></g><path fill="#3a414a" d="M212-179c-10-28-35-45-73-45-59 0-87 40-87 99 0 60 29 101 89 101 43 0 62-24 78-52l27 14C228-24 195 4 139 4 59 4 22-46 18-125c-6-104 99-153 187-111 19 9 31 26 39 46" id="ba"/><g id="N"><use transform="matrix(0.05,0,0,0.05,0,0)" xlink:href="#aD"/><use transform="matrix(0.05,0,0,0.05,3.95,0)" xlink:href="#aq"/><use transform="matrix(0.05,0,0,0.05,13.949999999999998,0)" xlink:href="#aP"/><use transform="matrix(0.05,0,0,0.05,18.95,0)" xlink:href="#ax"/><use transform="matrix(0.05,0,0,0.05,23.95,0)" xlink:href="#ba"/><use transform="matrix(0.05,0,0,0.05,36.9,0)" xlink:href="#aC"/><use transform="matrix(0.05,0,0,0.05,46.9,0)" xlink:href="#aD"/><use transform="matrix(0.05,0,0,0.05,50.85,0)" xlink:href="#aP"/></g><g id="O"><use transform="matrix(0.05,0,0,0.05,0,0)" xlink:href="#ar"/><use transform="matrix(0.05,0,0,0.05,5.95,0)" xlink:href="#av"/><use transform="matrix(0.05,0,0,0.05,9.9,0)" xlink:href="#az"/><use transform="matrix(0.05,0,0,0.05,19.9,0)" xlink:href="#aI"/><use transform="matrix(0.05,0,0,0.05,29.899999999999995,0)" xlink:href="#ax"/><use transform="matrix(0.05,0,0,0.05,34.9,0)" xlink:href="#ba"/><use transform="matrix(0.05,0,0,0.05,47.85,0)" xlink:href="#aC"/><use transform="matrix(0.05,0,0,0.05,57.85,0)" xlink:href="#aD"/><use transform="matrix(0.05,0,0,0.05,61.800000000000004,0)" xlink:href="#aP"/></g><g id="P"><use transform="matrix(0.05,0,0,0.05,0,0)" xlink:href="#az"/><use transform="matrix(0.05,0,0,0.05,10,0)" xlink:href="#aD"/><use transform="matrix(0.05,0,0,0.05,13.949999999999998,0)" xlink:href="#aG"/><use transform="matrix(0.05,0,0,0.05,23.95,0)" xlink:href="#aM"/><use transform="matrix(0.05,0,0,0.05,33.95,0)" xlink:href="#aC"/><use transform="matrix(0.05,0,0,0.05,43.95,0)" xlink:href="#aD"/><use transform="matrix(0.05,0,0,0.05,47.900000000000006,0)" xlink:href="#au"/><use transform="matrix(0.05,0,0,0.05,57.900000000000006,0)" xlink:href="#aq"/><use transform="matrix(0.05,0,0,0.05,67.9,0)" xlink:href="#aT"/><use transform="matrix(0.05,0,0,0.05,76.9,0)" xlink:href="#aq"/><use transform="matrix(0.05,0,0,0.05,86.9,0)" xlink:href="#ar"/><use transform="matrix(0.05,0,0,0.05,92.85000000000001,0)" xlink:href="#aK"/><use transform="matrix(0.05,0,0,0.05,101.85000000000001,0)" xlink:href="#av"/><use transform="matrix(0.05,0,0,0.05,105.80000000000001,0)" xlink:href="#ap"/><use transform="matrix(0.05,0,0,0.05,114.80000000000001,0)" xlink:href="#aq"/><use transform="matrix(0.05,0,0,0.05,124.80000000000001,0)" xlink:href="#ap"/></g><g id="Q"><use transform="matrix(0.05,0,0,0.05,0,0)" xlink:href="#ay"/><use transform="matrix(0.05,0,0,0.05,10,0)" xlink:href="#aC"/><use transform="matrix(0.05,0,0,0.05,20,0)" xlink:href="#aB"/><use transform="matrix(0.05,0,0,0.05,34.95,0)" xlink:href="#aq"/></g><g id="R"><use transform="matrix(0.05,0,0,0.05,0,0)" xlink:href="#aw"/><use transform="matrix(0.05,0,0,0.05,10,0)" xlink:href="#aq"/><use transform="matrix(0.05,0,0,0.05,20,0)" xlink:href="#ap"/><use transform="matrix(0.05,0,0,0.05,29,0)" xlink:href="#aK"/><use transform="matrix(0.05,0,0,0.05,38,0)" xlink:href="#ar"/><use transform="matrix(0.05,0,0,0.05,43.95,0)" xlink:href="#av"/><use transform="matrix(0.05,0,0,0.05,47.900000000000006,0)" xlink:href="#aE"/><use transform="matrix(0.05,0,0,0.05,57.900000000000006,0)" xlink:href="#ax"/><use transform="matrix(0.05,0,0,0.05,62.900000000000006,0)" xlink:href="#av"/><use transform="matrix(0.05,0,0,0.05,66.85000000000001,0)" xlink:href="#aG"/><use transform="matrix(0.05,0,0,0.05,76.85000000000001,0)" xlink:href="#ay"/></g><path fill="#3a414a" d="M145-31C134-9 116 4 85 4 32 4 16-35 15-94c0-59 17-99 70-100 32-1 48 14 60 33 0-11-1-24 2-32h30l-1 268h-32zM93-21c41 0 51-33 51-76s-8-73-50-73c-40 0-46 35-46 75s5 74 45 74" id="bb"/><g id="S"><use transform="matrix(0.05,0,0,0.05,0,0)" xlink:href="#aq"/><use transform="matrix(0.05,0,0,0.05,10,0)" xlink:href="#bb"/><use transform="matrix(0.05,0,0,0.05,20,0)" xlink:href="#ao"/><use transform="matrix(0.05,0,0,0.05,30,0)" xlink:href="#av"/><use transform="matrix(0.05,0,0,0.05,33.95,0)" xlink:href="#aE"/><use transform="matrix(0.05,0,0,0.05,43.95,0)" xlink:href="#aB"/><use transform="matrix(0.05,0,0,0.05,58.900000000000006,0)" xlink:href="#aq"/><use transform="matrix(0.05,0,0,0.05,68.9,0)" xlink:href="#ay"/><use transform="matrix(0.05,0,0,0.05,78.9,0)" xlink:href="#ax"/></g><g id="T"><use transform="matrix(0.05,0,0,0.05,0,0)" xlink:href="#aE"/><use transform="matrix(0.05,0,0,0.05,10,0)" xlink:href="#ar"/><use transform="matrix(0.05,0,0,0.05,15.949999999999998,0)" xlink:href="#av"/><use transform="matrix(0.05,0,0,0.05,19.9,0)" xlink:href="#aB"/><use transform="matrix(0.05,0,0,0.05,34.85,0)" xlink:href="#aC"/><use transform="matrix(0.05,0,0,0.05,44.85,0)" xlink:href="#ar"/><use transform="matrix(0.05,0,0,0.05,50.800000000000004,0)" xlink:href="#aU"/><use transform="matrix(0.05,0,0,0.05,59.800000000000004,0)" xlink:href="#aV"/><use transform="matrix(0.05,0,0,0.05,74.75,0)" xlink:href="#ao"/><use transform="matrix(0.05,0,0,0.05,84.75,0)" xlink:href="#ap"/><use transform="matrix(0.05,0,0,0.05,93.75,0)" xlink:href="#aK"/><use transform="matrix(0.05,0,0,0.05,102.75,0)" xlink:href="#aD"/><use transform="matrix(0.05,0,0,0.05,106.7,0)" xlink:href="#aq"/><use transform="matrix(0.05,0,0,0.05,116.7,0)" xlink:href="#aS"/><use transform="matrix(0.05,0,0,0.05,130.7,0)" xlink:href="#ar"/><use transform="matrix(0.05,0,0,0.05,136.64999999999998,0)" xlink:href="#aG"/><use transform="matrix(0.05,0,0,0.05,146.64999999999998,0)" xlink:href="#ao"/><use transform="matrix(0.05,0,0,0.05,156.64999999999998,0)" xlink:href="#aE"/></g><g id="U"><use transform="matrix(0.05,0,0,0.05,0,0)" xlink:href="#av"/><use transform="matrix(0.05,0,0,0.05,3.95,0)" xlink:href="#ay"/><use transform="matrix(0.05,0,0,0.05,13.949999999999998,0)" xlink:href="#ap"/><use transform="matrix(0.05,0,0,0.05,22.95,0)" xlink:href="#ax"/><use transform="matrix(0.05,0,0,0.05,27.950000000000003,0)" xlink:href="#ar"/><use transform="matrix(0.05,0,0,0.05,33.9,0)" xlink:href="#ao"/><use transform="matrix(0.05,0,0,0.05,43.9,0)" xlink:href="#aK"/><use transform="matrix(0.05,0,0,0.05,52.900000000000006,0)" xlink:href="#ax"/><use transform="matrix(0.05,0,0,0.05,57.900000000000006,0)" xlink:href="#av"/><use transform="matrix(0.05,0,0,0.05,61.85,0)" xlink:href="#aG"/><use transform="matrix(0.05,0,0,0.05,71.85,0)" xlink:href="#ay"/><use transform="matrix(0.05,0,0,0.05,81.85,0)" xlink:href="#ap"/></g><g id="V"><use transform="matrix(0.05,0,0,0.05,0,0)" xlink:href="#ao"/><use transform="matrix(0.05,0,0,0.05,10,0)" xlink:href="#ap"/><use transform="matrix(0.05,0,0,0.05,19,0)" xlink:href="#aq"/><use transform="matrix(0.05,0,0,0.05,29,0)" xlink:href="#ar"/><use transform="matrix(0.05,0,0,0.05,34.95,0)" xlink:href="#au"/><use transform="matrix(0.05,0,0,0.05,44.95,0)" xlink:href="#aq"/><use transform="matrix(0.05,0,0,0.05,54.95,0)" xlink:href="#aT"/><use transform="matrix(0.05,0,0,0.05,63.95,0)" xlink:href="#aq"/><use transform="matrix(0.05,0,0,0.05,73.95,0)" xlink:href="#ar"/><use transform="matrix(0.05,0,0,0.05,79.9,0)" xlink:href="#aK"/><use transform="matrix(0.05,0,0,0.05,88.9,0)" xlink:href="#av"/><use transform="matrix(0.05,0,0,0.05,92.85000000000001,0)" xlink:href="#ap"/><use transform="matrix(0.05,0,0,0.05,101.85000000000001,0)" xlink:href="#aq"/><use transform="matrix(0.05,0,0,0.05,111.85000000000001,0)" xlink:href="#ap"/></g><g id="W"><use transform="matrix(0.05,0,0,0.05,0,0)" xlink:href="#aW"/><use transform="matrix(0.05,0,0,0.05,10.950000000000001,0)" xlink:href="#at"/></g><path fill="#3a414a" d="M33 0v-248h34V0H33" id="bc"/><g id="X"><use transform="matrix(0.05,0,0,0.05,0,0)" xlink:href="#ao"/><use transform="matrix(0.05,0,0,0.05,10,0)" xlink:href="#ap"/><use transform="matrix(0.05,0,0,0.05,19,0)" xlink:href="#aq"/><use transform="matrix(0.05,0,0,0.05,29,0)" xlink:href="#ar"/><use transform="matrix(0.05,0,0,0.05,34.95,0)" xlink:href="#bc"/><use transform="matrix(0.05,0,0,0.05,39.95,0)" xlink:href="#aw"/></g><g id="Y"><use transform="matrix(0.05,0,0,0.05,0,0)" xlink:href="#aq"/><use transform="matrix(0.05,0,0,0.05,10,0)" xlink:href="#aT"/><use transform="matrix(0.05,0,0,0.05,19,0)" xlink:href="#aq"/><use transform="matrix(0.05,0,0,0.05,29,0)" xlink:href="#ar"/><use transform="matrix(0.05,0,0,0.05,34.95,0)" xlink:href="#aK"/><use transform="matrix(0.05,0,0,0.05,43.95,0)" xlink:href="#av"/><use transform="matrix(0.05,0,0,0.05,47.900000000000006,0)" xlink:href="#ap"/><use transform="matrix(0.05,0,0,0.05,56.900000000000006,0)" xlink:href="#aq"/><use transform="matrix(0.05,0,0,0.05,66.9,0)" xlink:href="#au"/><use transform="matrix(0.05,0,0,0.05,76.9,0)" xlink:href="#aD"/><use transform="matrix(0.05,0,0,0.05,80.85000000000001,0)" xlink:href="#aG"/><use transform="matrix(0.05,0,0,0.05,90.85000000000001,0)" xlink:href="#az"/></g><g id="Z"><use transform="matrix(0.05,0,0,0.05,0,0)" xlink:href="#av"/><use transform="matrix(0.05,0,0,0.05,3.95,0)" xlink:href="#ap"/><use transform="matrix(0.05,0,0,0.05,12.949999999999998,0)" xlink:href="#ba"/><use transform="matrix(0.05,0,0,0.05,25.899999999999995,0)" xlink:href="#ao"/><use transform="matrix(0.05,0,0,0.05,35.9,0)" xlink:href="#ap"/><use transform="matrix(0.05,0,0,0.05,44.9,0)" xlink:href="#ax"/><use transform="matrix(0.05,0,0,0.05,49.9,0)" xlink:href="#aG"/><use transform="matrix(0.05,0,0,0.05,59.900000000000006,0)" xlink:href="#aB"/></g><g id="aa"><use transform="matrix(0.05,0,0,0.05,0,0)" xlink:href="#aq"/><use transform="matrix(0.05,0,0,0.05,10,0)" xlink:href="#aT"/><use transform="matrix(0.05,0,0,0.05,19,0)" xlink:href="#aq"/><use transform="matrix(0.05,0,0,0.05,29,0)" xlink:href="#ar"/><use transform="matrix(0.05,0,0,0.05,34.95,0)" xlink:href="#aK"/><use transform="matrix(0.05,0,0,0.05,43.95,0)" xlink:href="#av"/><use transform="matrix(0.05,0,0,0.05,47.900000000000006,0)" xlink:href="#ap"/><use transform="matrix(0.05,0,0,0.05,56.900000000000006,0)" xlink:href="#aq"/></g><path fill="#3a414a" d="M185-189c-5-48-123-54-124 2 14 75 158 14 163 119 3 78-121 87-175 55-17-10-28-26-33-46l33-7c5 56 141 63 141-1 0-78-155-14-162-118-5-82 145-84 179-34 5 7 8 16 11 25" id="bd"/><g id="ab"><use transform="matrix(0.05,0,0,0.05,0,0)" xlink:href="#ar"/><use transform="matrix(0.05,0,0,0.05,5.95,0)" xlink:href="#aq"/><use transform="matrix(0.05,0,0,0.05,15.949999999999998,0)" xlink:href="#ap"/><use transform="matrix(0.05,0,0,0.05,24.95,0)" xlink:href="#ax"/><use transform="matrix(0.05,0,0,0.05,29.950000000000003,0)" xlink:href="#aZ"/><use transform="matrix(0.05,0,0,0.05,40.25,0)" xlink:href="#av"/><use transform="matrix(0.05,0,0,0.05,44.2,0)" xlink:href="#aB"/><use transform="matrix(0.05,0,0,0.05,59.150000000000006,0)" xlink:href="#aq"/><use transform="matrix(0.05,0,0,0.05,69.15,0)" xlink:href="#aY"/><use transform="matrix(0.05,0,0,0.05,81.15,0)" xlink:href="#aq"/><use transform="matrix(0.05,0,0,0.05,91.15,0)" xlink:href="#ax"/><use transform="matrix(0.05,0,0,0.05,96.15,0)" xlink:href="#aF"/><use transform="matrix(0.05,0,0,0.05,109.10000000000001,0)" xlink:href="#aq"/><use transform="matrix(0.05,0,0,0.05,119.10000000000001,0)" xlink:href="#aq"/><use transform="matrix(0.05,0,0,0.05,129.10000000000002,0)" xlink:href="#ay"/><use transform="matrix(0.05,0,0,0.05,139.10000000000002,0)" xlink:href="#bd"/><use transform="matrix(0.05,0,0,0.05,151.10000000000002,0)" xlink:href="#aq"/><use transform="matrix(0.05,0,0,0.05,161.10000000000002,0)" xlink:href="#ax"/><use transform="matrix(0.05,0,0,0.05,166.10000000000002,0)" xlink:href="#ap"/></g><g id="ac"><use transform="matrix(0.05,0,0,0.05,0,0)" xlink:href="#ay"/><use transform="matrix(0.05,0,0,0.05,10,0)" xlink:href="#aG"/><use transform="matrix(0.05,0,0,0.05,20,0)" xlink:href="#ax"/><use transform="matrix(0.05,0,0,0.05,25,0)" xlink:href="#aq"/></g><g id="ad"><use transform="matrix(0.05,0,0,0.05,0,0)" xlink:href="#ap"/><use transform="matrix(0.05,0,0,0.05,9,0)" xlink:href="#aq"/><use transform="matrix(0.05,0,0,0.05,19,0)" xlink:href="#ax"/><use transform="matrix(0.05,0,0,0.05,24,0)" xlink:href="#ap"/></g><g id="ae"><use transform="matrix(0.05,0,0,0.05,0,0)" xlink:href="#aQ"/><use transform="matrix(0.05,0,0,0.05,12.950000000000001,0)" xlink:href="#aG"/><use transform="matrix(0.05,0,0,0.05,22.950000000000003,0)" xlink:href="#aK"/><use transform="matrix(0.05,0,0,0.05,31.950000000000003,0)" xlink:href="#ao"/><use transform="matrix(0.05,0,0,0.05,41.95,0)" xlink:href="#aB"/><use transform="matrix(0.05,0,0,0.05,56.900000000000006,0)" xlink:href="#aq"/><use transform="matrix(0.05,0,0,0.05,66.9,0)" xlink:href="#ay"/><use transform="matrix(0.05,0,0,0.05,76.9,0)" xlink:href="#ax"/><use transform="matrix(0.05,0,0,0.05,81.9,0)" xlink:href="#aN"/><use transform="matrix(0.05,0,0,0.05,86.9,0)" xlink:href="#aO"/></g><g id="af"><use transform="matrix(0.05,0,0,0.05,0,0)" xlink:href="#ap"/><use transform="matrix(0.05,0,0,0.05,9,0)" xlink:href="#aq"/><use transform="matrix(0.05,0,0,0.05,19,0)" xlink:href="#ax"/></g><g id="ag"><use transform="matrix(0.05,0,0,0.05,0,0)" xlink:href="#ar"/><use transform="matrix(0.05,0,0,0.05,5.95,0)" xlink:href="#aq"/><use transform="matrix(0.05,0,0,0.05,15.949999999999998,0)" xlink:href="#aE"/><use transform="matrix(0.05,0,0,0.05,25.950000000000003,0)" xlink:href="#ap"/></g><g id="ah"><use transform="matrix(0.05,0,0,0.05,0,0)" xlink:href="#ax"/><use transform="matrix(0.05,0,0,0.05,5,0)" xlink:href="#aU"/><use transform="matrix(0.05,0,0,0.05,14,0)" xlink:href="#aE"/><use transform="matrix(0.05,0,0,0.05,24,0)" xlink:href="#aq"/></g><g id="ai"><use transform="matrix(0.05,0,0,0.05,0,0)" xlink:href="#aF"/><use transform="matrix(0.05,0,0,0.05,12.950000000000001,0)" xlink:href="#aG"/><use transform="matrix(0.05,0,0,0.05,22.950000000000003,0)" xlink:href="#ar"/><use transform="matrix(0.05,0,0,0.05,28.900000000000002,0)" xlink:href="#aX"/><use transform="matrix(0.05,0,0,0.05,37.900000000000006,0)" xlink:href="#aG"/><use transform="matrix(0.05,0,0,0.05,47.900000000000006,0)" xlink:href="#ao"/><use transform="matrix(0.05,0,0,0.05,57.900000000000006,0)" xlink:href="#ax"/><use transform="matrix(0.05,0,0,0.05,62.900000000000006,0)" xlink:href="#ap"/></g><g id="aj"><use transform="matrix(0.05,0,0,0.05,0,0)" xlink:href="#aw"/><use transform="matrix(0.05,0,0,0.05,10,0)" xlink:href="#aC"/><use transform="matrix(0.05,0,0,0.05,20,0)" xlink:href="#ax"/><use transform="matrix(0.05,0,0,0.05,25,0)" xlink:href="#aq"/></g><g id="ak"><use transform="matrix(0.05,0,0,0.05,0,0)" xlink:href="#aq"/><use transform="matrix(0.05,0,0,0.05,10,0)" xlink:href="#aT"/><use transform="matrix(0.05,0,0,0.05,19,0)" xlink:href="#aq"/><use transform="matrix(0.05,0,0,0.05,29,0)" xlink:href="#ar"/><use transform="matrix(0.05,0,0,0.05,34.95,0)" xlink:href="#aK"/><use transform="matrix(0.05,0,0,0.05,43.95,0)" xlink:href="#av"/><use transform="matrix(0.05,0,0,0.05,47.900000000000006,0)" xlink:href="#ap"/><use transform="matrix(0.05,0,0,0.05,56.900000000000006,0)" xlink:href="#aq"/><use transform="matrix(0.05,0,0,0.05,66.9,0)" xlink:href="#ap"/></g><g id="al"><use transform="matrix(0.05,0,0,0.05,0,0)" xlink:href="#ar"/><use transform="matrix(0.05,0,0,0.05,5.95,0)" xlink:href="#aG"/><use transform="matrix(0.05,0,0,0.05,15.949999999999998,0)" xlink:href="#ao"/><use transform="matrix(0.05,0,0,0.05,25.950000000000003,0)" xlink:href="#ax"/><use transform="matrix(0.05,0,0,0.05,30.950000000000003,0)" xlink:href="#av"/><use transform="matrix(0.05,0,0,0.05,34.9,0)" xlink:href="#ay"/><use transform="matrix(0.05,0,0,0.05,44.9,0)" xlink:href="#aq"/><use transform="matrix(0.05,0,0,0.05,54.900000000000006,0)" xlink:href="#ap"/></g><g id="am"><use transform="matrix(0.05,0,0,0.05,0,0)" xlink:href="#ar"/><use transform="matrix(0.05,0,0,0.05,5.95,0)" xlink:href="#aG"/><use transform="matrix(0.05,0,0,0.05,15.949999999999998,0)" xlink:href="#ao"/><use transform="matrix(0.05,0,0,0.05,25.950000000000003,0)" xlink:href="#ax"/><use transform="matrix(0.05,0,0,0.05,30.950000000000003,0)" xlink:href="#av"/><use transform="matrix(0.05,0,0,0.05,34.9,0)" xlink:href="#ay"/><use transform="matrix(0.05,0,0,0.05,44.9,0)" xlink:href="#aq"/><use transform="matrix(0.05,0,0,0.05,54.900000000000006,0)" xlink:href="#au"/><use transform="matrix(0.05,0,0,0.05,64.9,0)" xlink:href="#aq"/><use transform="matrix(0.05,0,0,0.05,74.9,0)" xlink:href="#aT"/><use transform="matrix(0.05,0,0,0.05,83.9,0)" xlink:href="#aq"/><use transform="matrix(0.05,0,0,0.05,93.9,0)" xlink:href="#ar"/><use transform="matrix(0.05,0,0,0.05,99.85000000000001,0)" xlink:href="#aK"/><use transform="matrix(0.05,0,0,0.05,108.85000000000001,0)" xlink:href="#av"/><use transform="matrix(0.05,0,0,0.05,112.80000000000001,0)" xlink:href="#ap"/><use transform="matrix(0.05,0,0,0.05,121.80000000000001,0)" xlink:href="#aq"/></g><g id="an"><use transform="matrix(0.05,0,0,0.05,0,0)" xlink:href="#aq"/><use transform="matrix(0.05,0,0,0.05,10,0)" xlink:href="#aT"/><use transform="matrix(0.05,0,0,0.05,19,0)" xlink:href="#aq"/><use transform="matrix(0.05,0,0,0.05,29,0)" xlink:href="#ar"/><use transform="matrix(0.05,0,0,0.05,34.95,0)" xlink:href="#aK"/><use transform="matrix(0.05,0,0,0.05,43.95,0)" xlink:href="#av"/><use transform="matrix(0.05,0,0,0.05,47.900000000000006,0)" xlink:href="#ap"/><use transform="matrix(0.05,0,0,0.05,56.900000000000006,0)" xlink:href="#aq"/><use transform="matrix(0.05,0,0,0.05,66.9,0)" xlink:href="#bc"/><use transform="matrix(0.05,0,0,0.05,71.9,0)" xlink:href="#aw"/></g></defs></g></svg>