<svg xmlns="http://www.w3.org/2000/svg" xmlns:xlink="http://www.w3.org/1999/xlink" xmlns:lucid="lucid" width="348.97" height="906"><g transform="translate(-2200 -20)" lucid:page-tab-id="0_0"><path d="M2320 20h110v120h-110z" fill-opacity="0"/><path d="M2420.2 140c5.4 0 9.8-4.36 9.8-9.65v-1.13c-3.96-30.55-21.34-55.34-55-55.34s-51.48 21.03-54.9 55.4c-.1 0-.1.07-.1.07-.44 5.36 3.52 10.12 8.9 10.65h91.3z" fill="url(#a)"/><path d="M2374.97 81.16c-6.2 0-11.5-1.54-16.7-4.88l16.7 42.84 16.42-42.58c-5.18 3.2-10.34 4.67-16.43 4.62z" fill="#fff" fill-opacity=".8"/><path d="M2405.9 50.54c0 16.86-13.8 30.54-30.8 30.54s-30.8-13.68-30.8-30.54S2358.1 20 2375.1 20s30.8 13.68 30.8 30.54z" fill="url(#b)"/><use xlink:href="#c" transform="matrix(1,0,0,1,2290,149) translate(66.05 14.4)"/><path d="M2315 272h120v120h-120z" fill-opacity="0"/><path d="M2378.35 357.87c0-7.8 5.5-14.3 12.8-15.9 1.3-9.12 9.12-16.23 18.53-16.23 1.8 0 3.5.3 5.2.7.1-1.4.2-2.9.2-4.4 0-27.62-22.42-50.04-50.04-50.04-27.62 0-50.04 22.42-50.04 50.04 0 27.62 22.42 50.04 50.04 50.04 4.6 0 9.1-.6 13.3-1.8v-12.4z" fill="url(#d)"/><path d="M2378.35 357.87c0-7.8 5.5-14.3 12.9-15.9.2-1.72.6-3.42 1.3-4.92h-3.6c.7-4.7 1.1-9.8 1.1-15 0-3.4-.2-6.8-.5-10.02h16.82c.8 3.2 1.2 6.5 1.2 10 0 1.3-.1 2.6-.2 3.9.8-.1 1.5-.2 2.3-.2 1.8 0 3.5.3 5.2.7.1-1.4.2-2.9.2-4.4 0-27.6-22.4-50.03-50.03-50.03-27.62 0-50.04 22.42-50.04 50.04 0 27.62 22.42 50.04 50.04 50.04 4.6 0 9.1-.6 13.3-1.8v-12.4zm3-20.82h-32.62c-.8-4.7-1.2-9.7-1.2-15 0-3.5.2-6.8.5-10.02h34.02c.3 3.2.5 6.5.5 10 0 5.3-.4 10.32-1.2 15.02zm.8-53.94c9.6 4.2 17.32 11.82 21.62 21.43h-15.2c-1.5-8.3-4-15.62-7.42-21.22l-.5-.9 1.5.6zm-17.7-3.6h1.2c6.3.7 12.4 10.6 15.3 25.03h-31.82c2.9-14.42 9-24.42 15.3-25.02zm-15.12 3l.1-.1c-3.6 5.7-6.3 13.32-7.9 22.13h-15.22c4.5-10 12.82-17.92 23.03-22.02zm-26.82 39.54c0-3.4.4-6.7 1.2-9.9v-.1h16.82c-.3 3.2-.5 6.6-.5 10 0 5.2.4 10.3 1.1 15h-15.9c-1.7-4.7-2.7-9.7-2.7-15zm6.4 22.52h13.62l.6 2c1.5 5.8 3.7 10.9 6.3 15-8.5-3.3-15.7-9.3-20.5-17zm21.43 0h29.42c-3.3 12.1-8.9 20-14.7 20-5.82 0-11.42-7.9-14.72-20z" fill="url(#e)"/><path d="M2378.4 370.18v-12.3c0-7.82 5.5-14.32 12.8-15.92 1.2-9.1 9.07-16.22 18.48-16.22 1.8 0 3.55.3 5.2.7.1-1.4.2-2.9.2-4.4 0-27.62-22.42-50.04-50.04-50.04 3.85 11.2 8.3 28.52 8.3 50.04s-4.45 38.83-8.3 50.04c4.6 0 9.1-.6 13.36-1.8z" fill="url(#f)"/><path d="M2422.34 344.56v3.13h2.38c5.67 0 10.28 4.62 10.28 10.27v23.75c0 5.65-4.6 10.28-10.28 10.28h-30.08c-5.67 0-10.28-4.63-10.28-10.28v-23.75c0-5.65 4.6-10.28 10.28-10.28h2.38v-3.13c0-7.04 5.67-12.7 12.66-12.7 7 0 12.66 5.66 12.66 12.7zm-20.56 0v3.13h15.8v-3.13c0-4.4-3.55-7.94-7.9-7.94-4.36 0-7.9 3.55-7.9 7.94zm7.9 30.06c2.63 0 4.76-2.16 4.76-4.74 0-2.65-2.13-4.75-4.76-4.75s-4.76 2.1-4.76 4.75c0 2.58 2.13 4.75 4.76 4.75z" fill="url(#g)"/><use xlink:href="#h" transform="matrix(1,0,0,1,2285,401) translate(14.574999999999989 14.4)"/><use xlink:href="#i" transform="matrix(1,0,0,1,2285,401) translate(120.475 14.4)"/><path d="M2375 119.53v136.1" stroke="#3a414a" fill="none"/><path stroke="#3a414a" stroke-width=".05" fill="#3a414a"/><path d="M2375 270.38l-4.64-14.26h9.28z" stroke="#3a414a" fill="#3a414a"/><path d="M2315 524h120v120h-120z" fill-opacity="0"/><path d="M2411.96 631.4c-26.28 20.28-63.96 15.6-84.36-10.68-20.28-26.28-15.6-63.96 10.68-84.36l.6-.36c26.64-19.92 64.32-14.4 84.12 12.12 19.56 26.28 14.64 63.12-11.04 83.28" fill="url(#j)"/><path d="M2358.78 571.4c17.72-16.88 38.55-25.27 63.02-25.34-3.27-4-6.4-7.07-10.53-10.2-12.05.75-22.14 3.1-33.18 7.8-11.48 4.9-20.26 11-28.9 19.95 4.14 1.57 7.2 4.06 9.58 7.8zM2329.05 595.52c-2.57 6.34-4.33 11.9-5.9 18.52 1.4 2.4 2.7 4.33 4.4 6.53 1.3 1.63 2.5 3.1 3.9 4.6 1.8-8.87 4.1-16.22 7.67-24.55-3.96-.7-7.17-2.3-10.07-5.1z" fill="#fff" fill-opacity=".6"/><path d="M2335.9 563.43c-2.63-7.08-4.1-13.34-4.86-20.83-3.12 3.28-5.44 6.37-7.75 10.28.82 6.02 2.03 11.06 4 16.84 2.32-3 5.03-5.02 8.6-6.3z" fill="#f2f2f2" fill-opacity=".55"/><path d="M2361.8 581.6c0 10.66-8.66 19.32-19.32 19.32s-19.32-8.65-19.32-19.32 8.66-19.32 19.32-19.32 19.32 8.65 19.32 19.32z" fill="url(#k)"/><path d="M2370.6 616.94c0-3.54 1.27-6.53 3.8-8.98-6.88-3.78-12.26-7.72-17.9-13.16-2.92 3.16-6.3 5.04-10.54 5.87 3.36 3.44 6.43 6.13 10.27 9.05 4.78 3.6 9.1 6.25 14.5 8.84-.08-.57-.14-1.04-.14-1.62zM2415.18 618.42c-6.92 0-12.8-.67-19.52-2.26.04.27.04.5 0 .78 0 3.42-1.2 6.34-3.62 8.76 8.4 1.67 15.67 2.18 24.22 1.7 3.3-3 5.84-5.83 8.42-9.47-3.33.36-6.14.5-9.5.5z" fill="#f2f2f2" fill-opacity=".55"/><path d="M2395.76 616.88c0 6.96-5.65 12.6-12.6 12.6-6.95 0-12.6-5.64-12.6-12.6s5.64-12.6 12.6-12.6c6.95 0 12.6 5.64 12.6 12.6z" fill="url(#l)"/><path d="M2398.64 583.4c.64-2.9 2.02-5.2 4.32-7.07-12.28-8.95-21.73-17.73-31.56-29.3-5.7-6.66-9.93-12.88-14.15-20.63-2.78.86-5.07 1.7-7.7 2.96 4.5 8.44 9.03 15.17 15.23 22.52 10.46 12.48 20.66 21.94 33.86 31.52z" fill="#f2f2f2" fill-opacity=".7"/><path d="M2425.16 585.86c0 7.4-6 13.38-13.38 13.38-7.4 0-13.38-6-13.38-13.38 0-7.4 6-13.38 13.38-13.38 7.4 0 13.38 6 13.38 13.38z" fill="url(#m)"/><path d="M2434.16 594.76l-2.47-1.2-2.13-1.14h-.42l-1.83-1.5h-.5l-2.18-1.4c-.8 2.72-2.25 4.82-4.52 6.52.84.56 1.77 1.06 2.68 1.55l.56.34 2.47 1.35 6.07 3.18c.9-2.7 1.52-5.05 2.05-7.87z" fill="#f2f2f2" fill-opacity=".55"/><path d="M2361.8 581.6c0 10.66-8.66 19.32-19.32 19.32s-19.32-8.65-19.32-19.32 8.66-19.32 19.32-19.32 19.32 8.65 19.32 19.32z" fill="url(#n)"/><path d="M2395.76 616.88c0 6.96-5.65 12.6-12.6 12.6-6.95 0-12.6-5.64-12.6-12.6s5.64-12.6 12.6-12.6c6.95 0 12.6 5.64 12.6 12.6z" fill="url(#o)"/><use xlink:href="#p" transform="matrix(1,0,0,1,2285,653) translate(21.099999999999994 14.4)"/><use xlink:href="#i" transform="matrix(1,0,0,1,2285,653) translate(113.95 14.4)"/><path d="M2375 392.5v115.12" stroke="#3a414a" fill="none"/><path d="M2375.47 392.5h-.94v-.5h.94z" stroke="#3a414a" stroke-width=".05" fill="#3a414a"/><path d="M2375 522.38l-4.64-14.26h9.28z" stroke="#3a414a" fill="#3a414a"/><path d="M2200 776h120v98h-120z" fill-opacity="0"/><path d="M2291.74 794.05c-15.6 0-28.26-4.05-28.26-9.07V833c0 4.9 12.43 8.96 27.92 9h.34c15.6 0 28.26-4.04 28.26-9v-48.02c0 5.02-12.66 9.07-28.26 9.07z" fill="url(#q)"/><path d="M2320 784.98c0 5-12.66 9.05-28.26 9.05-15.6 0-28.26-4.04-28.26-9.05 0-5 12.66-8.98 28.26-8.98 15.6 0 28.26 4.04 28.26 8.98" fill="#e8e8e8"/><path d="M2313.4 784.28c0 3.2-9.75 5.73-21.66 5.73-11.9 0-21.66-2.53-21.66-5.72 0-3.2 9.75-5.73 21.66-5.73 11.9 0 21.66 2.54 21.66 5.73" fill="#50e6ff"/><path d="M2291.8 785.62c-6.1-.12-11.26.52-17.16 2.12 5.87 1.74 11.05 2.42 17.16 2.26 6.1.16 11.3-.52 17.16-2.26-5.9-1.6-11.05-2.24-17.16-2.12z" fill="#32bedd"/><path d="M2228.26 794.05c-15.6 0-28.26-4.05-28.26-9.07V833c0 4.9 12.43 8.96 28.26 9 15.6 0 28.26-4.04 28.26-9v-48.02c0 5.02-12.66 9.07-28.26 9.07z" fill="url(#r)"/><path d="M2256.52 784.98c0 5-12.66 9.05-28.26 9.05-15.6 0-28.26-4.04-28.26-9.05 0-5 12.66-8.98 28.26-8.98 15.6 0 28.26 4.04 28.26 8.98" fill="#e8e8e8"/><path d="M2249.88 784.28c0 3.2-9.74 5.73-21.66 5.73-11.9 0-21.66-2.53-21.66-5.72 0-3.2 9.75-5.73 21.66-5.73 11.92 0 21.66 2.54 21.66 5.73" fill="#50e6ff"/><path d="M2228.25 785.62c-6.1-.12-11.26.52-17.16 2.12 5.86 1.74 11.04 2.42 17.15 2.26 6.1.16 11.3-.52 17.16-2.26-5.9-1.6-11.04-2.24-17.15-2.12z" fill="#32bedd"/><path d="M2260.06 826.03c-15.6 0-28.26-4.05-28.26-9.07V865c0 4.95 12.43 8.94 27.92 9h.34c15.6 0 28.26-4.05 28.26-9v-48.04c0 5.02-12.66 9.07-28.26 9.07z" fill="url(#s)"/><path d="M2288.32 817.03c0 5-12.66 9.05-28.26 9.05-15.6 0-28.26-4.04-28.26-9.05 0-5.02 12.66-8.98 28.26-8.98 15.6 0 28.26 4.04 28.26 8.98" fill="#e8e8e8"/><path d="M2281.6 816.33c0 3.18-9.75 5.73-21.66 5.73-11.9 0-21.66-2.55-21.66-5.73 0-3.17 9.75-5.44 21.66-5.44 11.9 0 21.66 2.53 21.66 5.72" fill="#50e6ff"/><path d="M2260 817.9c-6.1-.13-11.26.5-17.16 2.1 5.87 1.65 11.05 2.25 17.16 2 6.1.15 11.3-.53 17.16-2.27-5.9-1.5-11.1-2.05-17.16-1.84z" fill="#32bedd"/><use xlink:href="#t" transform="matrix(1,0,0,1,2170,883) translate(46.05 14.4)"/><use xlink:href="#i" transform="matrix(1,0,0,1,2170,883) translate(89 14.4)"/><path d="M2375 644.5V698a12 12 0 0 1-12 12h-91a12 12 0 0 0-12 12v37.62" stroke="#3a414a" fill="none"/><path d="M2375.47 644.5h-.94v-.5h.94z" stroke="#3a414a" stroke-width=".05" fill="#3a414a"/><path d="M2260 774.38l-4.64-14.26h9.28z" stroke="#3a414a" fill="#3a414a"/><path d="M2420 776h119v120h-119z" fill-opacity="0"/><path d="M2513.77 822.56c0 25.7-21 46.56-46.88 46.56-25.9 0-46.9-20.86-46.9-46.56 0-25.7 21-46.56 46.9-46.56 25.87 0 46.87 20.86 46.87 46.56z" fill="url(#u)"/><path d="M2538.05 850.46c0 24.6-20.13 44.58-44.92 44.58-24.8 0-44.93-19.97-44.93-44.58 0-24.6 20.13-44.58 44.93-44.58s44.92 19.97 44.92 44.58z" fill="#0078d4"/><path d="M2539 849h-.1c-.82-24.13-20.1-43.26-44.36-44.08-25.36-.82-46.58 18.95-47.4 44.08-.84 25.14 19 46.18 44.36 47 25.36.82 46.58-18.95 47.4-44.08h.1zm-19.02 0c-.1-6.83-1.2-12.66-3.67-19.03h14.34c3.4 6.1 5.05 12.02 5.33 19.03zm-69.72 2.92h16.53c.08 6.92 1.28 12.66 3.85 19.03h-15.16c-3.4-6.1-4.97-12.02-5.24-19.03zm42.25-24.96h-16.8c4.4-7 9.65-12.02 16.82-16.4zm3.05-16.4c6.9 4.3 11.85 9.4 15.98 16.4h-15.98zm-3.04 19.4V849h-22.68c.1-6.92 1.38-12.75 4.32-19.03zM2466.8 849h-16.54c.27-7 1.83-12.93 5.23-19.03h15.33c-2.66 6.37-3.95 12.1-4.04 19.03zm3.02 2.92h22.7v19.03h-18.47c-2.85-6.28-4.14-12.1-4.23-19.03zm22.7 22.04v17.4c-7.45-4.56-12.68-9.93-17.1-17.4zm3.03 0h15.7c-4.04 7-8.9 12.2-15.7 16.57zm0-3V851.9h21.4c-.1 6.92-1.38 12.75-4.13 19.03zm0-22.05v-18.93H2513c2.67 6.37 3.86 12.1 3.95 19.03zm33.25-21.94h-13.96c-4.32-8.1-9.83-13.93-17.64-18.85 13.32 1.28 24.25 7.84 31.6 18.86zm-37.85-18.94c-8.08 4.9-13.87 10.84-18.55 18.94h-15.07c7.8-11.57 19.47-18.22 33.62-18.94zm-33.62 65.94h14.8c4.22 8 9.54 13.84 17.17 18.85-13.5-1.17-24.53-7.64-31.97-18.84zm40.24 18.76c7.53-4.92 12.86-10.84 17.1-18.76h14.13c-7.35 10.93-18 17.4-31.23 18.76zm33.07-21.77h-14.5c2.56-6.37 3.75-12.1 3.84-19.03h16c-.3 7-1.94 12.93-5.34 19.03z" fill="#83b9f9"/><path d="M2493.08 840.6c-1.6 0-2.94.3-4.4 1l-27.16-33.15c2.14-3 2.63-6.54 1.28-9.94-2.14-5.34-8.26-8.05-13.7-5.97-5.44 2.16-8.13 8.2-6 13.62 2.1 5.35 8.26 8.06 13.65 5.98l27.4 33.5c-1.04 1.65-1.53 3.32-1.53 5.34 0 5.7 4.7 10.35 10.46 10.35 5.75 0 10.46-4.66 10.46-10.35 0-5.77-4.7-10.43-10.46-10.43z" fill="#42e8ca"/><use xlink:href="#v" transform="matrix(1,0,0,1,2390,905) translate(22.07499999999999 14.4)"/><use xlink:href="#i" transform="matrix(1,0,0,1,2390,905) translate(111.975 14.4)"/><path d="M2375 644.5V698a12 12 0 0 0 12 12h80.5a12 12 0 0 1 12 12v37.62" stroke="#3a414a" fill="none"/><path d="M2375.47 644.5h-.94v-.5h.94z" stroke="#3a414a" stroke-width=".05" fill="#3a414a"/><path d="M2479.5 774.38l-4.64-14.26h9.28z" stroke="#3a414a" fill="#3a414a"/><defs><linearGradient gradientUnits="userSpaceOnUse" id="a" x1="2375" y1="65.81" x2="2375" y2="156.35"><stop offset="22%" stop-color="#32d4f5"/><stop offset="100%" stop-color="#198ab3"/></linearGradient><linearGradient gradientUnits="userSpaceOnUse" id="b" x1="2372.42" y1="17.33" x2="2379.08" y2="99.48"><stop offset="22%" stop-color="#32d4f5"/><stop offset="100%" stop-color="#198ab3"/></linearGradient><path d="M232-93c-1 65-40 97-104 97C67 4 28-28 28-90v-158h33c8 89-33 224 67 224 102 0 64-133 71-224h33v155" id="w"/><path d="M135-143c-3-34-86-38-87 0 15 53 115 12 119 90S17 21 10-45l28-5c4 36 97 45 98 0-10-56-113-15-118-90-4-57 82-63 122-42 12 7 21 19 24 35" id="x"/><path d="M100-194c63 0 86 42 84 106H49c0 40 14 67 53 68 26 1 43-12 49-29l28 8c-11 28-37 45-77 45C44 4 14-33 15-96c1-61 26-98 85-98zm52 81c6-60-76-77-97-28-3 7-6 17-6 28h103" id="y"/><path d="M114-163C36-179 61-72 57 0H25l-1-190h30c1 12-1 29 2 39 6-27 23-49 58-41v29" id="z"/><g id="c"><use transform="matrix(0.05,0,0,0.05,0,0)" xlink:href="#w"/><use transform="matrix(0.05,0,0,0.05,12.950000000000001,0)" xlink:href="#x"/><use transform="matrix(0.05,0,0,0.05,21.950000000000003,0)" xlink:href="#y"/><use transform="matrix(0.05,0,0,0.05,31.950000000000003,0)" xlink:href="#z"/></g><linearGradient gradientUnits="userSpaceOnUse" id="d" x1="2315" y1="322.04" x2="2382.14" y2="322.04"><stop offset="44.6%" stop-color="#44dbf9"/><stop offset="54.3%" stop-color="#43d7f6"/><stop offset="62.2%" stop-color="#40cded"/><stop offset="69.6%" stop-color="#3cbcdf"/><stop offset="76.7%" stop-color="#36a4cb"/><stop offset="83.4%" stop-color="#2e84b1"/><stop offset="89.9%" stop-color="#255f92"/><stop offset="92.2%" stop-color="#225086"/></linearGradient><linearGradient gradientUnits="userSpaceOnUse" id="e" x1="2365.04" y1="372.07" x2="2365.04" y2="272"><stop offset="0%" stop-color="#225086"/><stop offset="100%" stop-color="#0055c5"/></linearGradient><linearGradient gradientUnits="userSpaceOnUse" id="f" x1="2390.06" y1="372.07" x2="2390.06" y2="272"><stop offset="0%" stop-color="#225086"/><stop offset="50.8%" stop-color="#0294e4"/><stop offset="100%" stop-color="#6df"/></linearGradient><linearGradient gradientUnits="userSpaceOnUse" id="g" x1="2426.2" y1="398.91" x2="2396.49" y2="346.64"><stop offset="0%" stop-color="#5e9624"/><stop offset="100%" stop-color="#86d633"/></linearGradient><path d="M30-248c87 1 191-15 191 75 0 78-77 80-158 76V0H30v-248zm33 125c57 0 124 11 124-50 0-59-68-47-124-48v98" id="A"/><path d="M117-194c89-4 53 116 60 194h-32v-121c0-31-8-49-39-48C34-167 62-67 57 0H25l-1-190h30c1 10-1 24 2 32 11-22 29-35 61-36" id="B"/><path d="M59-47c-2 24 18 29 38 22v24C64 9 27 4 27-40v-127H5v-23h24l9-43h21v43h35v23H59v120" id="C"/><path d="M141-36C126-15 110 5 73 4 37 3 15-17 15-53c-1-64 63-63 125-63 3-35-9-54-41-54-24 1-41 7-42 31l-33-3c5-37 33-52 76-52 45 0 72 20 72 64v82c-1 20 7 32 28 27v20c-31 9-61-2-59-35zM48-53c0 20 12 33 32 33 41-3 63-29 60-74-43 2-92-5-92 41" id="D"/><path d="M24-231v-30h32v30H24zM24 0v-190h32V0H24" id="E"/><path d="M100-194c62-1 85 37 85 99 1 63-27 99-86 99S16-35 15-95c0-66 28-99 85-99zM99-20c44 1 53-31 53-75 0-43-8-75-51-75s-53 32-53 75 10 74 51 75" id="F"/><g id="h"><use transform="matrix(0.05,0,0,0.05,0,0)" xlink:href="#A"/><use transform="matrix(0.05,0,0,0.05,12,0)" xlink:href="#z"/><use transform="matrix(0.05,0,0,0.05,17.95,0)" xlink:href="#y"/><use transform="matrix(0.05,0,0,0.05,27.950000000000003,0)" xlink:href="#x"/><use transform="matrix(0.05,0,0,0.05,36.95,0)" xlink:href="#y"/><use transform="matrix(0.05,0,0,0.05,46.95,0)" xlink:href="#B"/><use transform="matrix(0.05,0,0,0.05,56.95,0)" xlink:href="#C"/><use transform="matrix(0.05,0,0,0.05,61.95,0)" xlink:href="#D"/><use transform="matrix(0.05,0,0,0.05,71.95,0)" xlink:href="#C"/><use transform="matrix(0.05,0,0,0.05,76.95,0)" xlink:href="#E"/><use transform="matrix(0.05,0,0,0.05,80.9,0)" xlink:href="#F"/><use transform="matrix(0.05,0,0,0.05,90.9,0)" xlink:href="#B"/></g><path d="M30 0v-248h33v221h125V0H30" id="G"/><path d="M179-190L93 31C79 59 56 82 12 73V49c39 6 53-20 64-50L1-190h34L92-34l54-156h33" id="H"/><g id="i"><use transform="matrix(0.05,0,0,0.05,0,0)" xlink:href="#G"/><use transform="matrix(0.05,0,0,0.05,10,0)" xlink:href="#D"/><use transform="matrix(0.05,0,0,0.05,20,0)" xlink:href="#H"/><use transform="matrix(0.05,0,0,0.05,29,0)" xlink:href="#y"/><use transform="matrix(0.05,0,0,0.05,39,0)" xlink:href="#z"/></g><radialGradient gradientUnits="userSpaceOnUse" id="j" fx="2375.06" fy="583.87" cx="2375.06" cy="583.87" r="60.1"><stop offset="18%" stop-color="#5ea0ef"/><stop offset="100%" stop-color="#0078d4"/></radialGradient><linearGradient gradientUnits="userSpaceOnUse" id="k" x1="2342.62" y1="601.42" x2="2342.41" y2="573.46"><stop offset="0%" stop-color="#ccc"/><stop offset="100%" stop-color="#fcfcfc"/></linearGradient><linearGradient gradientUnits="userSpaceOnUse" id="l" x1="2383.16" y1="629.48" x2="2383.16" y2="604.35"><stop offset="0%" stop-color="#ccc"/><stop offset="100%" stop-color="#fcfcfc"/></linearGradient><linearGradient gradientUnits="userSpaceOnUse" id="m" x1="2411.78" y1="599.17" x2="2411.78" y2="572.48"><stop offset="0%" stop-color="#ccc"/><stop offset="100%" stop-color="#fcfcfc"/></linearGradient><linearGradient gradientUnits="userSpaceOnUse" id="n" x1="2342.62" y1="601.42" x2="2342.41" y2="573.46"><stop offset="0%" stop-color="#ccc"/><stop offset="100%" stop-color="#fcfcfc"/></linearGradient><linearGradient gradientUnits="userSpaceOnUse" id="o" x1="2383.16" y1="629.48" x2="2383.16" y2="604.35"><stop offset="0%" stop-color="#ccc"/><stop offset="100%" stop-color="#fcfcfc"/></linearGradient><path d="M205 0l-28-72H64L36 0H1l101-248h38L239 0h-34zm-38-99l-47-123c-12 45-31 82-46 123h93" id="I"/><path d="M115-194c55 1 70 41 70 98S169 2 115 4C84 4 66-9 55-30l1 105H24l-1-265h31l2 30c10-21 28-34 59-34zm-8 174c40 0 45-34 45-75s-6-73-45-74c-42 0-51 32-51 76 0 43 10 73 51 73" id="J"/><path d="M24 0v-261h32V0H24" id="K"/><path d="M96-169c-40 0-48 33-48 73s9 75 48 75c24 0 41-14 43-38l32 2c-6 37-31 61-74 61-59 0-76-41-82-99-10-93 101-131 147-64 4 7 5 14 7 22l-32 3c-4-21-16-35-41-35" id="L"/><g id="p"><use transform="matrix(0.05,0,0,0.05,0,0)" xlink:href="#I"/><use transform="matrix(0.05,0,0,0.05,12,0)" xlink:href="#J"/><use transform="matrix(0.05,0,0,0.05,22,0)" xlink:href="#J"/><use transform="matrix(0.05,0,0,0.05,32,0)" xlink:href="#K"/><use transform="matrix(0.05,0,0,0.05,35.95,0)" xlink:href="#E"/><use transform="matrix(0.05,0,0,0.05,39.900000000000006,0)" xlink:href="#L"/><use transform="matrix(0.05,0,0,0.05,48.900000000000006,0)" xlink:href="#D"/><use transform="matrix(0.05,0,0,0.05,58.900000000000006,0)" xlink:href="#C"/><use transform="matrix(0.05,0,0,0.05,63.900000000000006,0)" xlink:href="#E"/><use transform="matrix(0.05,0,0,0.05,67.85000000000001,0)" xlink:href="#F"/><use transform="matrix(0.05,0,0,0.05,77.85000000000001,0)" xlink:href="#B"/></g><linearGradient gradientUnits="userSpaceOnUse" id="q" x1="2263.48" y1="813.49" x2="2320" y2="813.49"><stop offset="0%" stop-color="#005ba1"/><stop offset="7%" stop-color="#0060a9"/><stop offset="36%" stop-color="#0071c8"/><stop offset="52%" stop-color="#0078d4"/><stop offset="100%" stop-color="#005ba1"/></linearGradient><linearGradient gradientUnits="userSpaceOnUse" id="r" x1="2200" y1="813.49" x2="2256.52" y2="813.49"><stop offset="0%" stop-color="#005ba1"/><stop offset="7%" stop-color="#0060a9"/><stop offset="36%" stop-color="#0071c8"/><stop offset="52%" stop-color="#0078d4"/><stop offset="100%" stop-color="#005ba1"/></linearGradient><linearGradient gradientUnits="userSpaceOnUse" id="s" x1="2231.8" y1="845.48" x2="2288.32" y2="845.48"><stop offset="0%" stop-color="#005ba1"/><stop offset="7%" stop-color="#0060a9"/><stop offset="36%" stop-color="#0071c8"/><stop offset="52%" stop-color="#0078d4"/><stop offset="100%" stop-color="#005ba1"/></linearGradient><path d="M30-248c118-7 216 8 213 122C240-48 200 0 122 0H30v-248zM63-27c89 8 146-16 146-99s-60-101-146-95v194" id="M"/><g id="t"><use transform="matrix(0.05,0,0,0.05,0,0)" xlink:href="#M"/><use transform="matrix(0.05,0,0,0.05,12.950000000000001,0)" xlink:href="#D"/><use transform="matrix(0.05,0,0,0.05,22.950000000000003,0)" xlink:href="#C"/><use transform="matrix(0.05,0,0,0.05,27.950000000000003,0)" xlink:href="#D"/></g><linearGradient gradientUnits="userSpaceOnUse" id="u" x1="2466.89" y1="776" x2="2466.89" y2="869.12"><stop offset="0%" stop-color="#0078d4"/><stop offset="100%" stop-color="#005ba1"/></linearGradient><path d="M33 0v-248h34V0H33" id="N"/><path d="M177-190C167-65 218 103 67 71c-23-6-38-20-44-43l32-5c15 47 100 32 89-28v-30C133-14 115 1 83 1 29 1 15-40 15-95c0-56 16-97 71-98 29-1 48 16 59 35 1-10 0-23 2-32h30zM94-22c36 0 50-32 50-73 0-42-14-75-50-75-39 0-46 34-46 75s6 73 46 73" id="O"/><g id="v"><use transform="matrix(0.05,0,0,0.05,0,0)" xlink:href="#N"/><use transform="matrix(0.05,0,0,0.05,5,0)" xlink:href="#B"/><use transform="matrix(0.05,0,0,0.05,15,0)" xlink:href="#C"/><use transform="matrix(0.05,0,0,0.05,20,0)" xlink:href="#y"/><use transform="matrix(0.05,0,0,0.05,30,0)" xlink:href="#O"/><use transform="matrix(0.05,0,0,0.05,40,0)" xlink:href="#z"/><use transform="matrix(0.05,0,0,0.05,45.95,0)" xlink:href="#D"/><use transform="matrix(0.05,0,0,0.05,55.95,0)" xlink:href="#C"/><use transform="matrix(0.05,0,0,0.05,60.95,0)" xlink:href="#E"/><use transform="matrix(0.05,0,0,0.05,64.9,0)" xlink:href="#F"/><use transform="matrix(0.05,0,0,0.05,74.9,0)" xlink:href="#B"/></g></defs></g></svg>